<?xml version="1.0" encoding="UTF-8" standalone="no"?>
<svg
   xmlns:dc="http://purl.org/dc/elements/1.1/"
   xmlns:cc="http://web.resource.org/cc/"
   xmlns:rdf="http://www.w3.org/1999/02/22-rdf-syntax-ns#"
   xmlns:svg="http://www.w3.org/2000/svg"
   xmlns="http://www.w3.org/2000/svg"
   xmlns:sodipodi="http://inkscape.sourceforge.net/DTD/sodipodi-0.dtd"
   xmlns:inkscape="http://www.inkscape.org/namespaces/inkscape"
   width="128"
   height="128"
   viewBox="0 0 1 1"
   preserveAspectRatio="none"
   id="svg2"
   sodipodi:version="0.32"
   inkscape:version="0.43"
   sodipodi:docname="totem-dts.svg"
   sodipodi:docbase="/home/monfort/Totem/img"
   version="1.0">
  <metadata
     id="metadata139">
    <rdf:RDF>
      <cc:Work
         rdf:about="">
        <dc:format>image/svg+xml</dc:format>
        <dc:type
           rdf:resource="http://purl.org/dc/dcmitype/StillImage" />
      </cc:Work>
    </rdf:RDF>
  </metadata>
  <defs
     id="defs137" />
  <sodipodi:namedview
     inkscape:window-height="825"
     inkscape:window-width="1173"
     inkscape:pageshadow="2"
     inkscape:pageopacity="0.0"
     borderopacity="1.0"
     bordercolor="#666666"
     pagecolor="#ffffff"
     id="base"
     inkscape:zoom="3.922619"
     inkscape:cx="64"
     inkscape:cy="60"
     inkscape:window-x="80"
     inkscape:window-y="20"
     inkscape:current-layer="svg2" />
  <title
     id="title4">SVG drawing</title>
  <desc
     id="desc6">This was produced by version 4.1 of GNU libplot, a free library for exporting 2-D vector graphics.</desc>
  <g
     id="g1694"
     transform="matrix(1.618944,0,0,1.618944,-0.343377,-0.104816)">
    <g
       id="g1513">
      <polygon
         id="polygon12"
         style="font-style:normal;font-variant:normal;font-weight:normal;font-stretch:normal;letter-spacing:normal;word-spacing:normal;text-anchor:start;fill:#fdd33a;fill-opacity:1;stroke:#fdd33a;stroke-width:0;stroke-linecap:butt;stroke-linejoin:miter;stroke-miterlimit:10.43299961;stroke-dasharray:none;stroke-dashoffset:0;stroke-opacity:1"
         points="206,792 206,791 203,791 203,790 199,790 199,789 197,789 197,788 195,788 195,787 194,787 194,786 192,786 192,785 190,785 190,784 188,784 188,783 187,783 187,782 185,782 185,781 184,781 184,780 182,780 182,779 181,779 181,778 180,778 180,777 179,777 179,776 178,776 178,775 176,775 176,774 175,774 175,773 174,773 174,772 173,772 173,771 172,771 172,770 171,770 171,769 170,769 170,767 169,767 169,766 168,766 168,765 167,765 167,764 166,764 166,762 165,762 165,761 164,761 164,760 163,760 163,759 162,759 162,757 161,757 161,755 160,755 160,753 159,753 159,751 158,751 158,749 157,749 157,747 156,747 156,746 155,746 155,743 154,743 154,740 153,740 153,737 152,737 152,733 151,733 151,730 150,730 150,724 149,724 149,714 148,714 148,705 149,705 149,696 150,696 150,691 151,691 151,686 152,686 152,683 153,683 153,680 154,680 154,677 155,677 155,675 156,675 156,673 157,673 157,671 158,671 158,669 159,669 159,667 160,667 160,665 161,665 161,664 162,664 162,662 163,662 163,661 164,661 164,659 165,659 165,658 166,658 166,657 167,657 167,655 168,655 168,654 169,654 169,653 170,653 170,652 171,652 171,651 172,651 172,650 173,650 173,649 174,649 174,648 175,648 175,647 176,647 176,646 177,646 177,645 178,645 178,644 179,644 179,643 181,643 181,642 182,642 182,641 183,641 183,640 185,640 185,639 186,639 186,638 188,638 188,637 189,637 189,636 273,636 273,637 275,637 275,638 276,638 276,639 278,639 278,640 279,640 279,641 281,641 281,642 282,642 282,643 283,643 283,644 284,644 284,645 285,645 285,646 286,646 286,647 287,647 287,648 289,648 289,649 290,649 290,650 291,650 291,652 292,652 292,653 293,653 293,654 294,654 294,655 295,655 295,656 296,656 296,657 297,657 297,659 298,659 298,660 299,660 299,662 300,662 300,663 301,663 301,665 302,665 302,666 303,666 303,668 304,668 304,670 305,670 305,672 306,672 306,674 307,674 307,676 308,676 308,679 309,679 309,682 310,682 310,685 311,685 311,689 312,689 312,694 313,694 313,700 314,700 314,718 313,718 313,728 312,728 312,731 311,731 311,735 310,735 310,738 309,738 309,741 308,741 308,744 307,744 307,746 306,746 306,748 305,748 305,750 304,750 304,752 303,752 303,754 302,754 302,756 301,756 301,758 300,758 300,759 299,759 299,760 298,760 298,762 297,762 297,763 296,763 296,764 295,764 295,765 294,765 294,767 293,767 293,768 292,768 292,769 291,769 291,770 290,770 290,771 289,771 289,772 288,772 288,773 287,773 287,774 286,774 286,775 285,775 285,776 284,776 284,777 282,777 282,778 281,778 281,779 280,779 280,780 279,780 279,781 278,781 278,782 276,782 276,783 274,783 274,784 272,784 272,785 270,785 270,786 269,786 269,787 267,787 267,788 265,788 265,789 263,789 263,790 260,790 260,791 257,791 257,792 206,792 "
         transform="matrix(1.7361e-3,0,0,-1.7361e-3,0.139873,1.529746)" />
      <path
         id="path14"
         style="font-style:normal;font-variant:normal;font-weight:normal;font-stretch:normal;letter-spacing:normal;word-spacing:normal;text-anchor:start;fill:#fdd33a;fill-opacity:1;stroke:#fdd33a;stroke-width:0;stroke-linecap:butt;stroke-linejoin:miter;stroke-miterlimit:10.43299961;stroke-dasharray:none;stroke-dashoffset:0;stroke-opacity:1"
         d="M 0.8069347,0.37444089 L 0.80658748,0.36058682 L 0.80554582,0.34692371 L 0.80382708,0.33345157 L 0.80146599,0.32020513 L 0.79846253,0.30718438 L 0.79483409,0.29442405 L 0.790598,0.28192413 L 0.78578901,0.26970198 L 0.78038973,0.25777497 L 0.77445227,0.24617783 L 0.76797662,0.23491054 L 0.76096277,0.22399047 L 0.75346282,0.21343498 L 0.74547676,0.2032788 L 0.73702196,0.19350455 L 0.72811576,0.18416433 L 0.71875818,0.17525814 L 0.7090013,0.16678597 L 0.69882776,0.15879991 L 0.68828963,0.15129996 L 0.67736956,0.14430348 L 0.66610227,0.13782783 L 0.65448776,0.131873 L 0.64257812,0.12649109 L 0.63035597,0.12166473 L 0.61785605,0.11744601 L 0.60507836,0.11381756 L 0.59205761,0.11081411 L 0.57881116,0.10845301 L 0.56533903,0.10673427 L 0.55167592,0.10569261 L 0.5378392,0.10534539 C 0.38921168,0.10534539 0.26873849,0.22583073 0.26873849,0.37444089 C 0.26873849,0.52305105 0.38921168,0.64353639 0.5378392,0.64353639 C 0.68644936,0.64353639 0.8069347,0.52305105 0.8069347,0.37444089 z " />
      <path
         id="path16"
         style="font-style:normal;font-variant:normal;font-weight:normal;font-stretch:normal;letter-spacing:normal;word-spacing:normal;text-anchor:start;fill:#fdd33a;fill-opacity:1;stroke:#fdd33a;stroke-width:0;stroke-linecap:butt;stroke-linejoin:miter;stroke-miterlimit:10.43299961;stroke-dasharray:none;stroke-dashoffset:0;stroke-opacity:1"
         d="M 0.80153543,0.37444089 L 0.80120557,0.36086459 L 0.80018127,0.34747926 L 0.79849726,0.3342849 L 0.79618824,0.32129887 L 0.79323687,0.30853854 L 0.78969523,0.29602126 L 0.78554595,0.28376439 L 0.78082376,0.2717853 L 0.77554601,0.26010135 L 0.76971272,0.24874725 L 0.76335859,0.2376883 L 0.756501,0.22699392 L 0.74915729,0.21666413 L 0.74132748,0.20669891 L 0.73302893,0.197133 L 0.72429634,0.18796639 L 0.7151471,0.17923381 L 0.70558118,0.17095261 L 0.69561597,0.1631228 L 0.68526881,0.15576174 L 0.67457444,0.14890414 L 0.66353284,0.14255002 L 0.65216139,0.13673408 L 0.64047743,0.13145634 L 0.62849835,0.12673415 L 0.61625884,0.12258487 L 0.60374156,0.11902586 L 0.59098122,0.11609185 L 0.5779952,0.11376548 L 0.56480084,0.11209882 L 0.55139814,0.11107452 L 0.5378392,0.1107273 C 0.39219777,0.1107273 0.27412214,0.22879947 0.27412214,0.37444089 C 0.27412214,0.52008232 0.39219777,0.63815448 0.5378392,0.63815448 C 0.68348063,0.63815448 0.80153543,0.52008232 0.80153543,0.37444089 z " />
      <path
         id="path18"
         style="font-style:normal;font-variant:normal;font-weight:normal;font-stretch:normal;letter-spacing:normal;word-spacing:normal;text-anchor:start;fill:#fdd33a;fill-opacity:1;stroke:#fdd33a;stroke-width:0;stroke-linecap:butt;stroke-linejoin:miter;stroke-miterlimit:10.43299961;stroke-dasharray:none;stroke-dashoffset:0;stroke-opacity:1"
         d="M 0.79615352,0.37444089 L 0.79582366,0.36114237 L 0.79481673,0.34803481 L 0.79318479,0.33510087 L 0.7909105,0.32237525 L 0.78802857,0.30987534 L 0.78453901,0.29761847 L 0.78047654,0.28562202 L 0.77585851,0.27388598 L 0.77068494,0.26244508 L 0.76497317,0.25129932 L 0.75875793,0.24048342 L 0.75203922,0.22999737 L 0.74483441,0.21987591 L 0.7371782,0.21011903 L 0.72905326,0.20074409 L 0.72049428,0.19176845 L 0.71151865,0.18322684 L 0.70216107,0.17510189 L 0.69238683,0.16742833 L 0.68226536,0.16022352 L 0.67177932,0.15350481 L 0.66096341,0.14728957 L 0.64983501,0.1415778 L 0.63839411,0.13640422 L 0.62665808,0.1317862 L 0.61464427,0.12772372 L 0.6023874,0.12425152 L 0.58988748,0.12135224 L 0.57717923,0.11909531 L 0.56424528,0.11744601 L 0.55112037,0.11645643 L 0.5378392,0.11610921 C 0.39516651,0.11610921 0.27950752,0.2317682 0.27950752,0.37444089 C 0.27950752,0.51711359 0.39516651,0.63277257 0.5378392,0.63277257 C 0.6805119,0.63277257 0.79615352,0.51711359 0.79615352,0.37444089 z " />
      <path
         id="path20"
         style="font-style:normal;font-variant:normal;font-weight:normal;font-stretch:normal;letter-spacing:normal;word-spacing:normal;text-anchor:start;fill:#fdd33a;fill-opacity:1;stroke:#fdd33a;stroke-width:0;stroke-linecap:butt;stroke-linejoin:miter;stroke-miterlimit:10.43299961;stroke-dasharray:none;stroke-dashoffset:0;stroke-opacity:1"
         d="M 0.79078897,0.37444089 L 0.79045911,0.36142014 L 0.78946954,0.348573 L 0.78787233,0.33591684 L 0.78565012,0.323469 L 0.78282027,0.31122949 L 0.77941752,0.29921568 L 0.77542449,0.28746228 L 0.77091063,0.27598666 L 0.76584122,0.26477146 L 0.76025097,0.25386875 L 0.75415726,0.24327854 L 0.74757744,0.23301819 L 0.74052888,0.22310506 L 0.73301156,0.21353915 L 0.72506023,0.20437254 L 0.71669222,0.19558787 L 0.70790756,0.18720251 L 0.69872359,0.17925117 L 0.68917504,0.17175122 L 0.67926191,0.16468529 L 0.66900156,0.15810547 L 0.65839399,0.15202912 L 0.64749128,0.14643888 L 0.63629343,0.14136947 L 0.62480045,0.13683825 L 0.61304706,0.13286258 L 0.6010506,0.12945982 L 0.5888111,0.12662998 L 0.5763459,0.12440777 L 0.56368973,0.1227932 L 0.55084259,0.12182098 L 0.5378392,0.12149112 C 0.39813524,0.12149112 0.28488422,0.23473693 0.28488422,0.37444089 C 0.28488422,0.5141275 0.39813524,0.62739066 0.5378392,0.62739066 C 0.67752581,0.62739066 0.79078897,0.5141275 0.79078897,0.37444089 z " />
      <path
         id="path22"
         style="font-style:normal;font-variant:normal;font-weight:normal;font-stretch:normal;letter-spacing:normal;word-spacing:normal;text-anchor:start;fill:#fdd33a;fill-opacity:1;stroke:#fdd33a;stroke-width:0;stroke-linecap:butt;stroke-linejoin:miter;stroke-miterlimit:10.43299961;stroke-dasharray:none;stroke-dashoffset:0;stroke-opacity:1"
         d="M 0.7853897,0.37444089 L 0.7850772,0.36169792 L 0.78412235,0.34912856 L 0.7825425,0.3367328 L 0.78037237,0.32454538 L 0.77759461,0.31256629 L 0.7742613,0.30081289 L 0.77037244,0.28931991 L 0.76594538,0.27806998 L 0.76098014,0.26711519 L 0.75551142,0.25643818 L 0.7495566,0.24607366 L 0.74311567,0.23602164 L 0.73620599,0.22631684 L 0.72886229,0.21695926 L 0.72108456,0.20798363 L 0.71289017,0.19938993 L 0.70429647,0.19119554 L 0.69530347,0.18340045 L 0.68594589,0.17605675 L 0.67624109,0.16914707 L 0.66620644,0.1627235 L 0.65584192,0.15675132 L 0.64516491,0.1512826 L 0.63419275,0.14633472 L 0.62296019,0.1418903 L 0.61144984,0.13800144 L 0.59969645,0.13466812 L 0.58771736,0.13190772 L 0.57552993,0.12972024 L 0.56315154,0.12815775 L 0.55056482,0.12720289 L 0.5378392,0.12687303 C 0.40110397,0.12687303 0.29026961,0.23770566 0.29026961,0.37444089 C 0.29026961,0.51115877 0.40110397,0.62200875 0.5378392,0.62200875 C 0.67455708,0.62200875 0.7853897,0.51115877 0.7853897,0.37444089 z " />
      <path
         id="path24"
         style="font-style:normal;font-variant:normal;font-weight:normal;font-stretch:normal;letter-spacing:normal;word-spacing:normal;text-anchor:start;fill:#fdd33a;fill-opacity:1;stroke:#fdd33a;stroke-width:0;stroke-linecap:butt;stroke-linejoin:miter;stroke-miterlimit:10.43299961;stroke-dasharray:none;stroke-dashoffset:0;stroke-opacity:1"
         d="M 0.78002515,0.37444089 L 0.77971265,0.3619757 L 0.77877516,0.34968411 L 0.77723003,0.33754877 L 0.77509463,0.32563912 L 0.77240367,0.31392045 L 0.76913981,0.30242747 L 0.76532039,0.29116018 L 0.76098014,0.28017066 L 0.75613642,0.26944157 L 0.75078923,0.2590076 L 0.74495593,0.24885142 L 0.73865389,0.23902509 L 0.73190046,0.22952863 L 0.72471301,0.22037938 L 0.71710889,0.21159471 L 0.70908811,0.20319199 L 0.70066802,0.19517121 L 0.69188336,0.18754973 L 0.68273411,0.18036228 L 0.67323764,0.17360885 L 0.66341132,0.16732416 L 0.65327249,0.16149087 L 0.64283853,0.15614368 L 0.63210943,0.1512826 L 0.62110256,0.14694235 L 0.60985263,0.14314029 L 0.59835965,0.13987642 L 0.58664097,0.13716811 L 0.57471397,0.13505007 L 0.56259599,0.13350494 L 0.5503044,0.13256744 L 0.5378392,0.13225494 C 0.4040727,0.13225494 0.29564804,0.24069175 0.29564804,0.37444089 C 0.29564804,0.50819004 0.4040727,0.61662684 0.5378392,0.61662684 C 0.67158835,0.61662684 0.78002515,0.50819004 0.78002515,0.37444089 z " />
      <path
         id="path26"
         style="font-style:normal;font-variant:normal;font-weight:normal;font-stretch:normal;letter-spacing:normal;word-spacing:normal;text-anchor:start;fill:#fdd33a;fill-opacity:1;stroke:#fdd33a;stroke-width:0;stroke-linecap:butt;stroke-linejoin:miter;stroke-miterlimit:10.43299961;stroke-dasharray:none;stroke-dashoffset:0;stroke-opacity:1"
         d="M 0.77462588,0.37444089 L 0.77433074,0.36225347 L 0.77341061,0.3502223 L 0.77190021,0.3383821 L 0.76981689,0.32671551 L 0.76717801,0.31525725 L 0.76398359,0.30402468 L 0.76026834,0.2930178 L 0.75603225,0.28227135 L 0.75127534,0.2717853 L 0.74604968,0.26155967 L 0.74035527,0.25164654 L 0.73419211,0.24204591 L 0.72759493,0.23275777 L 0.72056373,0.22381686 L 0.71311586,0.21522316 L 0.70526869,0.20699405 L 0.69705693,0.19916424 L 0.68846324,0.19171637 L 0.67952232,0.18468516 L 0.67023419,0.17808798 L 0.6606162,0.17192483 L 0.65070306,0.16621306 L 0.6404948,0.1609874 L 0.63000875,0.15624785 L 0.61924493,0.15201176 L 0.60825542,0.14827915 L 0.59700549,0.14510208 L 0.58556459,0.14244585 L 0.573898,0.14036253 L 0.56204044,0.13886949 L 0.55002662,0.13794935 L 0.5378392,0.13763685 C 0.40705879,0.13763685 0.30103169,0.24366048 0.30103169,0.37444089 C 0.30103169,0.50522131 0.40705879,0.61124493 0.5378392,0.61124493 C 0.66860226,0.61124493 0.77462588,0.50522131 0.77462588,0.37444089 z " />
      <path
         id="path28"
         style="font-style:normal;font-variant:normal;font-weight:normal;font-stretch:normal;letter-spacing:normal;word-spacing:normal;text-anchor:start;fill:#fdd33a;fill-opacity:1;stroke:#fdd33a;stroke-width:0;stroke-linecap:butt;stroke-linejoin:miter;stroke-miterlimit:10.43299961;stroke-dasharray:none;stroke-dashoffset:0;stroke-opacity:1"
         d="M 0.76924397,0.37444089 L 0.76894883,0.36253125 L 0.76804606,0.35077785 L 0.76658774,0.33919806 L 0.76453914,0.32780925 L 0.76196971,0.3166114 L 0.75884473,0.30562189 L 0.75519892,0.29487543 L 0.75106701,0.28435467 L 0.74643162,0.27411168 L 0.74131012,0.2641291 L 0.7357546,0.25444166 L 0.72973034,0.24504936 L 0.72327204,0.23598692 L 0.71639709,0.22723698 L 0.70912283,0.21883425 L 0.70146663,0.21079611 L 0.69342848,0.20313991 L 0.68504312,0.19586565 L 0.67629318,0.18899069 L 0.66721337,0.18254976 L 0.65783844,0.17652549 L 0.64813364,0.17095261 L 0.63816842,0.16584848 L 0.62790807,0.16121309 L 0.61740467,0.15706381 L 0.60665821,0.153418 L 0.59566869,0.15031038 L 0.58447085,0.1477236 L 0.57308203,0.14569236 L 0.56150225,0.14421667 L 0.54974885,0.14333126 L 0.5378392,0.14301876 C 0.41002752,0.14301876 0.30641707,0.24662921 0.30641707,0.37444089 C 0.30641707,0.50225258 0.41002752,0.60586302 0.5378392,0.60586302 C 0.66563352,0.60586302 0.76924397,0.50225258 0.76924397,0.37444089 z " />
      <path
         id="path30"
         style="font-style:normal;font-variant:normal;font-weight:normal;font-stretch:normal;letter-spacing:normal;word-spacing:normal;text-anchor:start;fill:#fdd33a;fill-opacity:1;stroke:#fdd33a;stroke-width:0;stroke-linecap:butt;stroke-linejoin:miter;stroke-miterlimit:10.43299961;stroke-dasharray:none;stroke-dashoffset:0;stroke-opacity:1"
         d="M 0.76387942,0.37444089 L 0.76358429,0.36280902 L 0.76269887,0.3513334 L 0.76127527,0.34001403 L 0.75927876,0.32888563 L 0.75676141,0.3179482 L 0.75370588,0.3072191 L 0.75016423,0.2967157 L 0.74610176,0.28645535 L 0.7415879,0.27643805 L 0.73658793,0.26669853 L 0.73115394,0.25723678 L 0.72526856,0.24805281 L 0.71896652,0.2391987 L 0.71224781,0.23065709 L 0.70514716,0.2224627 L 0.69766457,0.21459817 L 0.6898174,0.20711558 L 0.68162301,0.20001493 L 0.67308139,0.19331358 L 0.66420992,0.18701154 L 0.65504331,0.18112616 L 0.64558157,0.1756748 L 0.63582469,0.1706922 L 0.62582475,0.16616098 L 0.61554704,0.16211586 L 0.60504363,0.15855686 L 0.5943319,0.15551868 L 0.58339447,0.15300134 L 0.57224871,0.15100482 L 0.56094669,0.14956386 L 0.54947107,0.14869581 L 0.5378392,0.14840067 C 0.41299625,0.14840067 0.31179377,0.24959794 0.31179377,0.37444089 C 0.31179377,0.49928385 0.41299625,0.60048111 0.5378392,0.60048111 C 0.66266479,0.60048111 0.76387942,0.49928385 0.76387942,0.37444089 z " />
      <path
         id="path32"
         style="font-style:normal;font-variant:normal;font-weight:normal;font-stretch:normal;letter-spacing:normal;word-spacing:normal;text-anchor:start;fill:#fdd33a;fill-opacity:1;stroke:#fdd33a;stroke-width:0;stroke-linecap:butt;stroke-linejoin:miter;stroke-miterlimit:10.43299961;stroke-dasharray:none;stroke-dashoffset:0;stroke-opacity:1"
         d="M 0.75848015,0.37444089 L 0.75820238,0.3630868 L 0.75735169,0.35187159 L 0.75594545,0.34083 L 0.75400101,0.32996201 L 0.75153575,0.319285 L 0.74856702,0.30881631 L 0.74509482,0.29857332 L 0.74115387,0.28855603 L 0.73672682,0.27878178 L 0.73184838,0.26926796 L 0.72653591,0.26001454 L 0.72080678,0.25107363 L 0.71464363,0.24241049 L 0.70809853,0.23407721 L 0.70117149,0.22607379 L 0.69386251,0.21841759 L 0.68618895,0.21110861 L 0.67818553,0.20416421 L 0.66985225,0.19761911 L 0.66120647,0.19147332 L 0.65224819,0.18572682 L 0.64301214,0.18041436 L 0.63349831,0.17553592 L 0.62372407,0.17112622 L 0.61370677,0.16716792 L 0.60344642,0.16369572 L 0.59297774,0.16072698 L 0.58230072,0.15826172 L 0.57143274,0.15633465 L 0.56039114,0.15492841 L 0.5491933,0.15407772 L 0.5378392,0.15378258 C 0.41596498,0.15378258 0.31718089,0.25256667 0.31718089,0.37444089 C 0.31718089,0.49629775 0.41596498,0.5950992 0.5378392,0.5950992 C 0.65969606,0.5950992 0.75848015,0.49629775 0.75848015,0.37444089 z " />
      <path
         id="path34"
         style="font-style:normal;font-variant:normal;font-weight:normal;font-stretch:normal;letter-spacing:normal;word-spacing:normal;text-anchor:start;fill:#fdd33a;fill-opacity:1;stroke:#fdd33a;stroke-width:0;stroke-linecap:butt;stroke-linejoin:miter;stroke-miterlimit:10.43299961;stroke-dasharray:none;stroke-dashoffset:0;stroke-opacity:1"
         d="M 0.7531156,0.37444089 L 0.75283783,0.36336458 L 0.7520045,0.35242715 L 0.75063298,0.34166333 L 0.74874063,0.33105576 L 0.74632745,0.32063916 L 0.74342816,0.31043089 L 0.74004277,0.30041359 L 0.73618863,0.29063935 L 0.7318831,0.28110816 L 0.72712619,0.27182002 L 0.72193525,0.26280966 L 0.716345,0.25407708 L 0.7103381,0.24563964 L 0.70394925,0.23749733 L 0.69717846,0.22970224 L 0.69006045,0.22221965 L 0.68257786,0.21508428 L 0.67476541,0.20833085 L 0.66664046,0.20192464 L 0.65820302,0.19593509 L 0.64945307,0.19032749 L 0.64044271,0.18515391 L 0.63115458,0.180397 L 0.62162339,0.17607411 L 0.61184915,0.17221997 L 0.60184921,0.16883457 L 0.59164094,0.16593528 L 0.58122434,0.16353947 L 0.57061677,0.16164712 L 0.55983559,0.1602756 L 0.54891552,0.15944227 L 0.5378392,0.15916449 C 0.41895108,0.15916449 0.3225628,0.25555277 0.3225628,0.37444089 C 0.3225628,0.49332902 0.41895108,0.58971729 0.5378392,0.58971729 C 0.65672733,0.58971729 0.7531156,0.49332902 0.7531156,0.37444089 z " />
      <path
         id="path36"
         style="font-style:normal;font-variant:normal;font-weight:normal;font-stretch:normal;letter-spacing:normal;word-spacing:normal;text-anchor:start;fill:#fdd33a;fill-opacity:1;stroke:#fdd33a;stroke-width:0;stroke-linecap:butt;stroke-linejoin:miter;stroke-miterlimit:10.43299961;stroke-dasharray:none;stroke-dashoffset:0;stroke-opacity:1"
         d="M 0.74771633,0.37444089 L 0.74745592,0.36364235 L 0.74663995,0.3529827 L 0.74530315,0.34247929 L 0.74346289,0.33213214 L 0.74111915,0.32199331 L 0.73828931,0.3120281 L 0.73499072,0.30227122 L 0.73122338,0.29274003 L 0.72702202,0.28345189 L 0.72238663,0.27438945 L 0.71733458,0.26560479 L 0.71188323,0.25708053 L 0.70603257,0.24885142 L 0.69979997,0.2409348 L 0.69320279,0.23331333 L 0.68624103,0.2260217 L 0.67896677,0.2190773 L 0.67134529,0.21248013 L 0.66341132,0.20624753 L 0.6551822,0.20039687 L 0.64667531,0.19492815 L 0.63787329,0.1898761 L 0.6288282,0.18524072 L 0.61954007,0.18103935 L 0.61000888,0.17728938 L 0.600252,0.17399079 L 0.59028678,0.17116095 L 0.5801306,0.16881721 L 0.5698008,0.16695958 L 0.5592974,0.16564015 L 0.54863774,0.16482418 L 0.5378392,0.1645464 C 0.42191981,0.1645464 0.32794471,0.2585215 0.32794471,0.37444089 C 0.32794471,0.49036029 0.42191981,0.58433538 0.5378392,0.58433538 C 0.6537586,0.58433538 0.74771633,0.49036029 0.74771633,0.37444089 z " />
      <path
         id="path38"
         style="font-style:normal;font-variant:normal;font-weight:normal;font-stretch:normal;letter-spacing:normal;word-spacing:normal;text-anchor:start;fill:#fdd33a;fill-opacity:1;stroke:#fdd33a;stroke-width:0;stroke-linecap:butt;stroke-linejoin:miter;stroke-miterlimit:10.43299961;stroke-dasharray:none;stroke-dashoffset:0;stroke-opacity:1"
         d="M 0.74233442,0.37444089 L 0.74207401,0.36392013 L 0.7412754,0.35352089 L 0.73999069,0.34329526 L 0.73818514,0.33322588 L 0.73589349,0.32333011 L 0.73315045,0.31362531 L 0.72993867,0.30412884 L 0.7262755,0.29484071 L 0.7221783,0.28577827 L 0.71766444,0.27695888 L 0.71273392,0.26839991 L 0.70742145,0.26010135 L 0.70170968,0.25208057 L 0.69563333,0.24435492 L 0.68920976,0.23692441 L 0.68243897,0.22982376 L 0.67533832,0.22305297 L 0.66792518,0.2166294 L 0.66019953,0.21055305 L 0.65217875,0.20485865 L 0.64388019,0.19954618 L 0.63532122,0.19461566 L 0.62650183,0.1901018 L 0.61743939,0.1860046 L 0.60815125,0.18234143 L 0.59865479,0.17912964 L 0.58894999,0.17636925 L 0.57905422,0.17409495 L 0.56898484,0.17228941 L 0.55874185,0.17098734 L 0.54835997,0.17020609 L 0.5378392,0.16992831 C 0.42488854,0.16992831 0.33332662,0.26149023 0.33332662,0.37444089 C 0.33332662,0.48739156 0.42488854,0.57895347 0.5378392,0.57895347 C 0.65078987,0.57895347 0.74233442,0.48739156 0.74233442,0.37444089 z " />
      <path
         id="path40"
         style="font-style:normal;font-variant:normal;font-weight:normal;font-stretch:normal;letter-spacing:normal;word-spacing:normal;text-anchor:start;fill:#fdd33a;fill-opacity:1;stroke:#fdd33a;stroke-width:0;stroke-linecap:butt;stroke-linejoin:miter;stroke-miterlimit:10.43299961;stroke-dasharray:none;stroke-dashoffset:0;stroke-opacity:1"
         d="M 0.73696987,0.37444089 L 0.73670946,0.3641979 L 0.73592821,0.35407644 L 0.73466086,0.34411123 L 0.73292476,0.33430226 L 0.73068519,0.32466691 L 0.7280116,0.31522252 L 0.72488662,0.30596911 L 0.72131025,0.29692403 L 0.71731722,0.28810464 L 0.71292489,0.27952831 L 0.70813325,0.27117767 L 0.70295967,0.2631048 L 0.69740415,0.25529235 L 0.69148405,0.24777504 L 0.68523409,0.24055286 L 0.67863691,0.23364318 L 0.67172723,0.227046 L 0.6644877,0.22077868 L 0.65697039,0.21487594 L 0.64915794,0.20932042 L 0.64108507,0.20414685 L 0.63275179,0.19933785 L 0.62415809,0.19494552 L 0.61533871,0.19095249 L 0.60629363,0.18739348 L 0.59704021,0.1842685 L 0.58759583,0.18157755 L 0.57796047,0.17935534 L 0.56815151,0.17760188 L 0.55818629,0.17633452 L 0.54808219,0.17557064 L 0.5378392,0.17531022 C 0.42785727,0.17531022 0.33870853,0.26447632 0.33870853,0.37444089 C 0.33870853,0.48440547 0.42785727,0.57357156 0.5378392,0.57357156 C 0.64780378,0.57357156 0.73696987,0.48440547 0.73696987,0.37444089 z " />
      <path
         id="path42"
         style="font-style:normal;font-variant:normal;font-weight:normal;font-stretch:normal;letter-spacing:normal;word-spacing:normal;text-anchor:start;fill:#fdd33a;fill-opacity:1;stroke:#fdd33a;stroke-width:0;stroke-linecap:butt;stroke-linejoin:miter;stroke-miterlimit:10.43299961;stroke-dasharray:none;stroke-dashoffset:0;stroke-opacity:1"
         d="M 0.7315706,0.37444089 L 0.73132755,0.36447568 L 0.73058102,0.35463199 L 0.72934839,0.34492719 L 0.72764702,0.335396 L 0.72547689,0.32602107 L 0.72287274,0.31681974 L 0.71981721,0.30782674 L 0.716345,0.29902471 L 0.7124735,0.29044838 L 0.70818534,0.28209774 L 0.70353259,0.27397279 L 0.69848054,0.26610825 L 0.69308127,0.2585215 L 0.68733477,0.25119516 L 0.68124106,0.24416395 L 0.67483485,0.23744524 L 0.66809879,0.23102167 L 0.66106758,0.22492796 L 0.6537586,0.21918147 L 0.64615448,0.2137822 L 0.63828995,0.20874751 L 0.63018236,0.2040774 L 0.62183172,0.1998066 L 0.61325539,0.19591773 L 0.60445336,0.19244553 L 0.595443,0.18940736 L 0.58625903,0.18678585 L 0.57688409,0.18463308 L 0.56733554,0.1829317 L 0.5576481,0.18169907 L 0.54780442,0.18095255 L 0.5378392,0.18069213 C 0.430826,0.18069213 0.34409044,0.26744505 0.34409044,0.37444089 C 0.34409044,0.48143674 0.430826,0.56818965 0.5378392,0.56818965 C 0.64483505,0.56818965 0.7315706,0.48143674 0.7315706,0.37444089 z " />
      <path
         id="path44"
         style="font-style:normal;font-variant:normal;font-weight:normal;font-stretch:normal;letter-spacing:normal;word-spacing:normal;text-anchor:start;fill:#fdd23a;fill-opacity:1;stroke:#fdd23a;stroke-width:0;stroke-linecap:butt;stroke-linejoin:miter;stroke-miterlimit:10.43299961;stroke-dasharray:none;stroke-dashoffset:0;stroke-opacity:1"
         d="M 0.72620605,0.37444089 L 0.725963,0.36475346 L 0.72523384,0.35518755 L 0.72403593,0.34576052 L 0.72236927,0.33647239 L 0.72026859,0.32735786 L 0.71773389,0.31841695 L 0.71476515,0.309667 L 0.71139712,0.30112539 L 0.70762978,0.29277475 L 0.70346314,0.2846498 L 0.69893192,0.27676791 L 0.69403612,0.26912907 L 0.68877574,0.26173328 L 0.68318549,0.25461527 L 0.67726539,0.2477924 L 0.6710328,0.2412473 L 0.6644877,0.2350147 L 0.65764746,0.2290946 L 0.65052945,0.223487 L 0.64315103,0.21824398 L 0.63551219,0.21334818 L 0.62761293,0.20879959 L 0.61950535,0.20465031 L 0.61115471,0.20088298 L 0.60259573,0.19749758 L 0.59384579,0.19454621 L 0.58490487,0.19199415 L 0.57579035,0.18989346 L 0.56651957,0.18824417 L 0.55709255,0.18704626 L 0.54752664,0.1863171 L 0.5378392,0.18607404 C 0.43379473,0.18607404 0.34947235,0.27041378 0.34947235,0.37444089 C 0.34947235,0.47846801 0.43379473,0.56280774 0.5378392,0.56280774 C 0.64186631,0.56280774 0.72620605,0.47846801 0.72620605,0.37444089 z " />
      <path
         id="path46"
         style="font-style:normal;font-variant:normal;font-weight:normal;font-stretch:normal;letter-spacing:normal;word-spacing:normal;text-anchor:start;fill:#fdd038;fill-opacity:1;stroke:#fdd038;stroke-width:0;stroke-linecap:butt;stroke-linejoin:miter;stroke-miterlimit:10.43299961;stroke-dasharray:none;stroke-dashoffset:0;stroke-opacity:1"
         d="M 0.72080678,0.37444089 L 0.72058109,0.36503123 L 0.71986929,0.35572574 L 0.7187061,0.34657649 L 0.71709153,0.33756613 L 0.71506029,0.32871202 L 0.71259503,0.32003152 L 0.7097131,0.31152463 L 0.70643187,0.30320871 L 0.7027687,0.29511849 L 0.69872359,0.28721923 L 0.69433126,0.27956303 L 0.68955698,0.27213252 L 0.68447021,0.26496243 L 0.67903622,0.25805275 L 0.67327236,0.25140349 L 0.66721337,0.24504936 L 0.66085925,0.23899037 L 0.65422735,0.23324388 L 0.64731767,0.22780989 L 0.64013022,0.22270575 L 0.63271707,0.21794884 L 0.62504351,0.21353915 L 0.61716161,0.20949403 L 0.60905402,0.20583086 L 0.60075547,0.20256699 L 0.59224858,0.19968507 L 0.58356808,0.19721981 L 0.57471397,0.19517121 L 0.56570361,0.193574 L 0.556537,0.19241081 L 0.54724887,0.19169901 L 0.5378392,0.19145595 C 0.43678082,0.19145595 0.35485426,0.27338251 0.35485426,0.37444089 C 0.35485426,0.47549928 0.43678082,0.55742583 0.5378392,0.55742583 C 0.63888022,0.55742583 0.72080678,0.47549928 0.72080678,0.37444089 z " />
      <path
         id="path48"
         style="font-style:normal;font-variant:normal;font-weight:normal;font-stretch:normal;letter-spacing:normal;word-spacing:normal;text-anchor:start;fill:#fdce37;fill-opacity:1;stroke:#fdce37;stroke-width:0;stroke-linecap:butt;stroke-linejoin:miter;stroke-miterlimit:10.43299961;stroke-dasharray:none;stroke-dashoffset:0;stroke-opacity:1"
         d="M 0.71542487,0.37444089 L 0.71519918,0.36529165 L 0.71450474,0.35628129 L 0.71337627,0.34739246 L 0.71181378,0.33864251 L 0.70983463,0.33004882 L 0.70743881,0.32162873 L 0.70466105,0.31338226 L 0.70146663,0.30530939 L 0.69792498,0.29744486 L 0.6940014,0.28978866 L 0.68971323,0.28234079 L 0.6850952,0.27513597 L 0.68014732,0.26817421 L 0.67486958,0.26147287 L 0.66929669,0.25503194 L 0.66341132,0.24885142 L 0.65724816,0.2429834 L 0.65080723,0.23739316 L 0.64408852,0.23213278 L 0.63712676,0.22716753 L 0.62992195,0.2225495 L 0.62249144,0.2182787 L 0.61483524,0.21435511 L 0.60697071,0.21079611 L 0.59889784,0.20761905 L 0.59065136,0.20482392 L 0.58221392,0.20242811 L 0.57362022,0.20044895 L 0.56488764,0.19888646 L 0.55599881,0.197758 L 0.54697109,0.19708092 L 0.5378392,0.19683786 C 0.43974955,0.19683786 0.36023617,0.27635124 0.36023617,0.37444089 C 0.36023617,0.47251318 0.43974955,0.55204392 0.5378392,0.55204392 C 0.63591149,0.55204392 0.71542487,0.47251318 0.71542487,0.37444089 z " />
      <path
         id="path50"
         style="font-style:normal;font-variant:normal;font-weight:normal;font-stretch:normal;letter-spacing:normal;word-spacing:normal;text-anchor:start;fill:#fdcc36;fill-opacity:1;stroke:#fdcc36;stroke-width:0;stroke-linecap:butt;stroke-linejoin:miter;stroke-miterlimit:10.43299961;stroke-dasharray:none;stroke-dashoffset:0;stroke-opacity:1"
         d="M 0.71006032,0.37444089 L 0.70983463,0.36556942 L 0.70915755,0.35683684 L 0.70806381,0.34820842 L 0.7065534,0.33973625 L 0.70462633,0.33140298 L 0.70231732,0.32322594 L 0.699609,0.31522252 L 0.69651874,0.30741007 L 0.6930639,0.29977123 L 0.68926184,0.29235809 L 0.68511257,0.28513591 L 0.68063343,0.27815679 L 0.67584179,0.27140336 L 0.6707203,0.26489298 L 0.66532103,0.25864302 L 0.65960926,0.25267084 L 0.65363707,0.24695907 L 0.64738711,0.24154244 L 0.64087674,0.2364383 L 0.63412331,0.23162931 L 0.62712683,0.22715017 L 0.61992201,0.22300089 L 0.6124915,0.21919883 L 0.60487002,0.21576135 L 0.59704021,0.2126711 L 0.58905415,0.20996278 L 0.58087712,0.20763641 L 0.57254384,0.2057267 L 0.56405431,0.20419893 L 0.55544326,0.20310519 L 0.54669331,0.20244547 L 0.5378392,0.20221977 C 0.44271828,0.20221977 0.36561808,0.27931998 0.36561808,0.37444089 C 0.36561808,0.46954445 0.44271828,0.54666201 0.5378392,0.54666201 C 0.63294276,0.54666201 0.71006032,0.46954445 0.71006032,0.37444089 z " />
      <path
         id="path52"
         style="font-style:normal;font-variant:normal;font-weight:normal;font-stretch:normal;letter-spacing:normal;word-spacing:normal;text-anchor:start;fill:#fdc935;fill-opacity:1;stroke:#fdc935;stroke-width:0;stroke-linecap:butt;stroke-linejoin:miter;stroke-miterlimit:10.43299961;stroke-dasharray:none;stroke-dashoffset:0;stroke-opacity:1"
         d="M 0.70466105,0.37444089 L 0.70445272,0.3658472 L 0.70381036,0.35737503 L 0.70275134,0.34902439 L 0.70127566,0.34081264 L 0.69941803,0.33273977 L 0.6971611,0.32482316 L 0.69453959,0.31708015 L 0.6915535,0.30949339 L 0.68822019,0.30211497 L 0.68453965,0.29491015 L 0.6805119,0.28793103 L 0.67617165,0.28116024 L 0.6715189,0.27461514 L 0.66657102,0.2683131 L 0.661328,0.26225411 L 0.6558072,0.2564729 L 0.65000862,0.2509521 L 0.64394964,0.24569172 L 0.63764759,0.24074383 L 0.63111986,0.23609109 L 0.62434907,0.23175084 L 0.61735258,0.22774044 L 0.61016513,0.22405991 L 0.60276934,0.22070924 L 0.59519995,0.21772315 L 0.58743958,0.21510164 L 0.57952296,0.21286207 L 0.5714501,0.21098708 L 0.56323835,0.20952875 L 0.55488771,0.20846973 L 0.54641554,0.20782738 L 0.5378392,0.20760168 C 0.44568702,0.20760168 0.37099999,0.28230607 0.37099999,0.37444089 C 0.37099999,0.46657572 0.44568702,0.5412801 0.5378392,0.5412801 C 0.62997403,0.5412801 0.70466105,0.46657572 0.70466105,0.37444089 z " />
      <path
         id="path54"
         style="font-style:normal;font-variant:normal;font-weight:normal;font-stretch:normal;letter-spacing:normal;word-spacing:normal;text-anchor:start;fill:#fdc734;fill-opacity:1;stroke:#fdc734;stroke-width:0;stroke-linecap:butt;stroke-linejoin:miter;stroke-miterlimit:10.43299961;stroke-dasharray:none;stroke-dashoffset:0;stroke-opacity:1"
         d="M 0.6992965,0.37444089 L 0.69908817,0.36612498 L 0.69846317,0.35793058 L 0.69743888,0.34985772 L 0.69601527,0.34190638 L 0.69420973,0.33409393 L 0.69203961,0.32642037 L 0.68948754,0.31892042 L 0.68660561,0.31159407 L 0.68337647,0.30444134 L 0.6798001,0.29747958 L 0.67591124,0.29072615 L 0.67170987,0.28416369 L 0.66721337,0.27784429 L 0.66242174,0.27173322 L 0.65735233,0.26588256 L 0.65200514,0.26027496 L 0.64639754,0.25492777 L 0.64052952,0.24985836 L 0.63443581,0.24506672 L 0.62809904,0.24055286 L 0.62155394,0.2363515 L 0.61478316,0.23246264 L 0.60782139,0.22890363 L 0.60068602,0.22567449 L 0.59334232,0.2227752 L 0.58584237,0.22024049 L 0.57818617,0.21807037 L 0.57037372,0.21626482 L 0.56242238,0.21484122 L 0.55434951,0.21381692 L 0.54613776,0.21319193 L 0.5378392,0.21298359 C 0.44867311,0.21298359 0.3763819,0.2852748 0.3763819,0.37444089 C 0.3763819,0.46360699 0.44867311,0.53589819 0.5378392,0.53589819 C 0.6270053,0.53589819 0.6992965,0.46360699 0.6992965,0.37444089 z " />
      <path
         id="path56"
         style="font-style:normal;font-variant:normal;font-weight:normal;font-stretch:normal;letter-spacing:normal;word-spacing:normal;text-anchor:start;fill:#fdc533;fill-opacity:1;stroke:#fdc533;stroke-width:0;stroke-linecap:butt;stroke-linejoin:miter;stroke-miterlimit:10.43299961;stroke-dasharray:none;stroke-dashoffset:0;stroke-opacity:1"
         d="M 0.69389723,0.37444089 L 0.69370626,0.36640275 L 0.69309863,0.35848614 L 0.69210905,0.35067369 L 0.69073753,0.34298276 L 0.68898407,0.33543073 L 0.68688339,0.32803494 L 0.68443549,0.32077804 L 0.68164037,0.31369475 L 0.67851539,0.30678508 L 0.67506055,0.30004901 L 0.67131057,0.29350391 L 0.6672481,0.28718451 L 0.66290785,0.28105608 L 0.65827246,0.2751707 L 0.6533593,0.26949365 L 0.64818572,0.26407702 L 0.64276909,0.2589208 L 0.6371094,0.25400764 L 0.63120666,0.24937225 L 0.62509559,0.24501464 L 0.61875882,0.24096953 L 0.61223109,0.23720219 L 0.60549502,0.23376471 L 0.59858534,0.23063973 L 0.59150205,0.22784461 L 0.58424516,0.22537935 L 0.57683201,0.22327867 L 0.56927997,0.22154257 L 0.56160641,0.22017105 L 0.55379396,0.21918147 L 0.54585998,0.21857384 L 0.5378392,0.2183655 C 0.45164184,0.2183655 0.38176381,0.28824353 0.38176381,0.37444089 C 0.38176381,0.46063826 0.45164184,0.53051628 0.5378392,0.53051628 C 0.62403657,0.53051628 0.69389723,0.46063826 0.69389723,0.37444089 z " />
      <path
         id="path58"
         style="font-style:normal;font-variant:normal;font-weight:normal;font-stretch:normal;letter-spacing:normal;word-spacing:normal;text-anchor:start;fill:#fdc331;fill-opacity:1;stroke:#fdc331;stroke-width:0;stroke-linecap:butt;stroke-linejoin:miter;stroke-miterlimit:10.43299961;stroke-dasharray:none;stroke-dashoffset:0;stroke-opacity:1"
         d="M 0.68851532,0.37444089 L 0.68832435,0.36668053 L 0.68773408,0.35902433 L 0.68677922,0.35148965 L 0.68545979,0.3440765 L 0.68377577,0.33678489 L 0.68174453,0.32963215 L 0.67938344,0.32263567 L 0.67667512,0.31577808 L 0.67365431,0.30911145 L 0.67033836,0.30261844 L 0.66670991,0.29629903 L 0.66278632,0.29018796 L 0.65858496,0.28428522 L 0.65410582,0.27859081 L 0.64938363,0.2731221 L 0.64438366,0.26787908 L 0.639158,0.26289647 L 0.63368928,0.25815692 L 0.62799488,0.25369514 L 0.62209214,0.24949378 L 0.6159637,0.24557019 L 0.60966166,0.24194174 L 0.60316865,0.23860843 L 0.59648466,0.23558762 L 0.58964443,0.23289666 L 0.58264794,0.2305182 L 0.57549521,0.22848697 L 0.56820359,0.22682031 L 0.56079044,0.22548351 L 0.55323841,0.22452866 L 0.54558221,0.22393839 L 0.5378392,0.22374741 C 0.45461057,0.22374741 0.38714572,0.29121226 0.38714572,0.37444089 C 0.38714572,0.45766953 0.45461057,0.52513437 0.5378392,0.52513437 C 0.62105048,0.52513437 0.68851532,0.45766953 0.68851532,0.37444089 z " />
      <path
         id="path60"
         style="font-style:normal;font-variant:normal;font-weight:normal;font-stretch:normal;letter-spacing:normal;word-spacing:normal;text-anchor:start;fill:#fdc130;fill-opacity:1;stroke:#fdc130;stroke-width:0;stroke-linecap:butt;stroke-linejoin:miter;stroke-miterlimit:10.43299961;stroke-dasharray:none;stroke-dashoffset:0;stroke-opacity:1"
         d="M 0.68315077,0.37444089 L 0.6829598,0.3669583 L 0.68238689,0.35957988 L 0.68146676,0.35230562 L 0.6801994,0.34515289 L 0.67856747,0.33812168 L 0.67660568,0.33122937 L 0.67433139,0.32447594 L 0.67172723,0.31787876 L 0.66881059,0.31143783 L 0.6655988,0.3051705 L 0.66210924,0.29909415 L 0.65832454,0.29319141 L 0.65427943,0.28749701 L 0.64995654,0.28201093 L 0.6453906,0.27673319 L 0.6405816,0.2716985 L 0.63552955,0.26687214 L 0.63026917,0.2623062 L 0.62476573,0.25800067 L 0.61907132,0.25395555 L 0.61318594,0.25017086 L 0.60709223,0.24666393 L 0.60082491,0.24345215 L 0.59438398,0.24055286 L 0.5877868,0.23794871 L 0.58105073,0.23565706 L 0.57414105,0.23371263 L 0.56710985,0.23208069 L 0.55995712,0.23079598 L 0.55268286,0.22987585 L 0.54530443,0.2293203 L 0.5378392,0.22912932 C 0.4575793,0.22912932 0.39252763,0.29419835 0.39252763,0.37444089 C 0.39252763,0.45468344 0.4575793,0.51975246 0.5378392,0.51975246 C 0.61808175,0.51975246 0.68315077,0.45468344 0.68315077,0.37444089 z " />
      <path
         id="path62"
         style="font-style:normal;font-variant:normal;font-weight:normal;font-stretch:normal;letter-spacing:normal;word-spacing:normal;text-anchor:start;fill:#febe2f;fill-opacity:1;stroke:#febe2f;stroke-width:0;stroke-linecap:butt;stroke-linejoin:miter;stroke-miterlimit:10.43299961;stroke-dasharray:none;stroke-dashoffset:0;stroke-opacity:1"
         d="M 0.6777515,0.37444089 L 0.67757789,0.36723608 L 0.6770397,0.36013543 L 0.67615429,0.35312159 L 0.67492166,0.34624663 L 0.67335917,0.33947584 L 0.67146682,0.33282658 L 0.66926197,0.32633356 L 0.66676199,0.31997944 L 0.66396687,0.31378156 L 0.66087661,0.30773993 L 0.65750858,0.30188928 L 0.65386277,0.29621223 L 0.64995654,0.29072615 L 0.64580726,0.28543105 L 0.64141493,0.28036164 L 0.63677954,0.27550055 L 0.63191846,0.27086517 L 0.62683169,0.26647284 L 0.62155394,0.2623062 L 0.61606787,0.25841733 L 0.61039082,0.25477152 L 0.6045228,0.25140349 L 0.59849854,0.24831323 L 0.59230066,0.24550075 L 0.58594653,0.24300076 L 0.57943616,0.24079592 L 0.57280426,0.23892093 L 0.56603347,0.23735844 L 0.55914115,0.23612581 L 0.55214467,0.2352404 L 0.54502666,0.2347022 L 0.5378392,0.23451123 C 0.46054803,0.23451123 0.39790954,0.29716708 0.39790954,0.37444089 C 0.39790954,0.4517147 0.46054803,0.51437055 0.5378392,0.51437055 C 0.61511301,0.51437055 0.6777515,0.4517147 0.6777515,0.37444089 z " />
      <path
         id="path64"
         style="font-style:normal;font-variant:normal;font-weight:normal;font-stretch:normal;letter-spacing:normal;word-spacing:normal;text-anchor:start;fill:#febc2e;fill-opacity:1;stroke:#febc2e;stroke-width:0;stroke-linecap:butt;stroke-linejoin:miter;stroke-miterlimit:10.43299961;stroke-dasharray:none;stroke-dashoffset:0;stroke-opacity:1"
         d="M 0.67238695,0.37444089 L 0.67221334,0.36751386 L 0.67169251,0.36069098 L 0.67082446,0.35395491 L 0.66964391,0.34732301 L 0.66815087,0.34081264 L 0.66632796,0.33442379 L 0.66420992,0.32817383 L 0.6618141,0.32206276 L 0.65910579,0.31610793 L 0.65613706,0.31030936 L 0.65290791,0.30466704 L 0.64940099,0.29921568 L 0.64565101,0.29393794 L 0.64165798,0.28885116 L 0.6374219,0.28397272 L 0.63297748,0.27930261 L 0.62830737,0.27484084 L 0.62341157,0.27062211 L 0.61834216,0.26662908 L 0.61306442,0.26287911 L 0.6075957,0.25937219 L 0.60197074,0.25612568 L 0.59617216,0.25315695 L 0.59019998,0.25046599 L 0.58408891,0.24805281 L 0.57783895,0.24593477 L 0.5714501,0.24412923 L 0.56495708,0.24261882 L 0.55832518,0.24143827 L 0.55158911,0.24058758 L 0.54474888,0.24006675 L 0.5378392,0.23989314 C 0.46353412,0.23989314 0.40329145,0.30013581 0.40329145,0.37444089 C 0.40329145,0.44874597 0.46353412,0.50898864 0.5378392,0.50898864 C 0.61214428,0.50898864 0.67238695,0.44874597 0.67238695,0.37444089 z " />
      <path
         id="path66"
         style="font-style:normal;font-variant:normal;font-weight:normal;font-stretch:normal;letter-spacing:normal;word-spacing:normal;text-anchor:start;fill:#feba2d;fill-opacity:1;stroke:#feba2d;stroke-width:0;stroke-linecap:butt;stroke-linejoin:miter;stroke-miterlimit:10.43299961;stroke-dasharray:none;stroke-dashoffset:0;stroke-opacity:1"
         d="M 0.66698768,0.37444089 L 0.66683143,0.36779163 L 0.66632796,0.36122917 L 0.665512,0.35477088 L 0.66436617,0.34839939 L 0.66292521,0.3421668 L 0.66118911,0.336021 L 0.65915787,0.33003146 L 0.65684886,0.32416344 L 0.65426207,0.31843431 L 0.65141486,0.31287879 L 0.64828989,0.30746216 L 0.64493921,0.30221913 L 0.64132812,0.29714972 L 0.6375087,0.29227128 L 0.63344623,0.28760117 L 0.62915806,0.28310467 L 0.62467892,0.27883387 L 0.61999145,0.27477139 L 0.61511301,0.27093461 L 0.6100436,0.26734089 L 0.60481794,0.26397285 L 0.59940131,0.26086523 L 0.59382843,0.25801803 L 0.58811666,0.25543124 L 0.58224864,0.25312223 L 0.57624173,0.25109099 L 0.5701133,0.24933753 L 0.56386334,0.24789657 L 0.55750922,0.2467681 L 0.55103356,0.24595213 L 0.54448847,0.24544866 L 0.5378392,0.24527505 C 0.46650285,0.24527505 0.40867336,0.30310455 0.40867336,0.37444089 C 0.40867336,0.44577724 0.46650285,0.50360673 0.5378392,0.50360673 C 0.60917555,0.50360673 0.66698768,0.44577724 0.66698768,0.37444089 z " />
      <path
         id="path68"
         style="font-style:normal;font-variant:normal;font-weight:normal;font-stretch:normal;letter-spacing:normal;word-spacing:normal;text-anchor:start;fill:#feb72c;fill-opacity:1;stroke:#feb72c;stroke-width:0;stroke-linecap:butt;stroke-linejoin:miter;stroke-miterlimit:10.43299961;stroke-dasharray:none;stroke-dashoffset:0;stroke-opacity:1"
         d="M 0.66160577,0.37444089 L 0.66144952,0.36806941 L 0.66096341,0.36178473 L 0.66018217,0.35558685 L 0.65908843,0.34949314 L 0.65771691,0.34350359 L 0.65605025,0.33763557 L 0.65410582,0.33188908 L 0.65188361,0.32626412 L 0.64940099,0.32077804 L 0.64667531,0.31544822 L 0.64368922,0.31025728 L 0.64047743,0.30523995 L 0.6370226,0.30037887 L 0.63334206,0.29570876 L 0.6294532,0.29121226 L 0.625356,0.28690673 L 0.62105048,0.28280954 L 0.61657134,0.27892067 L 0.61188387,0.2752575 L 0.60704015,0.27180266 L 0.60202282,0.26857352 L 0.59683188,0.26560479 L 0.59150205,0.26286175 L 0.58601598,0.26039649 L 0.58039101,0.25817428 L 0.57464452,0.25622985 L 0.56875914,0.25456319 L 0.56278696,0.25317431 L 0.55667589,0.25208057 L 0.55049537,0.25129932 L 0.54421069,0.25081321 L 0.5378392,0.25065696 C 0.46947158,0.25065696 0.41405527,0.30607328 0.41405527,0.37444089 C 0.41405527,0.44279115 0.46947158,0.49822482 0.5378392,0.49822482 C 0.60618946,0.49822482 0.66160577,0.44279115 0.66160577,0.37444089 z " />
      <path
         id="path70"
         style="font-style:normal;font-variant:normal;font-weight:normal;font-stretch:normal;letter-spacing:normal;word-spacing:normal;text-anchor:start;fill:#feb52a;fill-opacity:1;stroke:#feb52a;stroke-width:0;stroke-linecap:butt;stroke-linejoin:miter;stroke-miterlimit:10.43299961;stroke-dasharray:none;stroke-dashoffset:0;stroke-opacity:1"
         d="M 0.65624122,0.37444089 L 0.65608497,0.36834718 L 0.65561623,0.36234028 L 0.6548697,0.35640282 L 0.65382804,0.35056952 L 0.65250861,0.34485775 L 0.6509114,0.33923279 L 0.64905377,0.33372935 L 0.64693573,0.32834744 L 0.64455727,0.32310442 L 0.64193576,0.31800028 L 0.63908856,0.3130524 L 0.63601566,0.3082434 L 0.63271707,0.30360801 L 0.62919278,0.29912888 L 0.62547753,0.29482335 L 0.62155394,0.29072615 L 0.61743939,0.28680257 L 0.61315122,0.28306995 L 0.60867208,0.27956303 L 0.6040367,0.27626444 L 0.5992277,0.27317418 L 0.59426245,0.27032698 L 0.58915832,0.26772283 L 0.5839153,0.26534437 L 0.57855075,0.26322633 L 0.57304731,0.2613687 L 0.56742235,0.25977149 L 0.56169322,0.25845205 L 0.55585992,0.25741039 L 0.54993982,0.25664651 L 0.54393291,0.25619512 L 0.5378392,0.25603887 C 0.47244032,0.25603887 0.41943718,0.30905937 0.41943718,0.37444089 C 0.41943718,0.43982242 0.47244032,0.49284291 0.5378392,0.49284291 C 0.60322073,0.49284291 0.65624122,0.43982242 0.65624122,0.37444089 z " />
      <path
         id="path72"
         style="font-style:normal;font-variant:normal;font-weight:normal;font-stretch:normal;letter-spacing:normal;word-spacing:normal;text-anchor:start;fill:#feb329;fill-opacity:1;stroke:#feb329;stroke-width:0;stroke-linecap:butt;stroke-linejoin:miter;stroke-miterlimit:10.43299961;stroke-dasharray:none;stroke-dashoffset:0;stroke-opacity:1"
         d="M 0.65084195,0.37444089 L 0.65070306,0.36862496 L 0.65026904,0.36287847 L 0.64953988,0.35723614 L 0.6485503,0.35166326 L 0.64728295,0.34619455 L 0.64577254,0.34083 L 0.64398436,0.33558698 L 0.64197048,0.33044812 L 0.63969619,0.32544815 L 0.63721357,0.32056971 L 0.63448789,0.31583016 L 0.63155388,0.31124685 L 0.62839418,0.3068198 L 0.62504351,0.30254899 L 0.6214845,0.2984518 L 0.61775189,0.29452821 L 0.6138283,0.29077824 L 0.6097311,0.28723659 L 0.6054603,0.28386856 L 0.60101588,0.28072622 L 0.59643258,0.27779221 L 0.59171039,0.27506653 L 0.58683195,0.27256655 L 0.58183198,0.27030962 L 0.57669312,0.26827838 L 0.5714501,0.26650756 L 0.56608555,0.26497979 L 0.56061684,0.26371244 L 0.55504395,0.26272286 L 0.54938427,0.26201106 L 0.54365514,0.26157703 L 0.5378392,0.26142078 C 0.47540905,0.26142078 0.42481909,0.3120281 0.42481909,0.37444089 C 0.42481909,0.43685369 0.47540905,0.487461 0.5378392,0.487461 C 0.600252,0.487461 0.65084195,0.43685369 0.65084195,0.37444089 z " />
      <path
         id="path74"
         style="font-style:normal;font-variant:normal;font-weight:normal;font-stretch:normal;letter-spacing:normal;word-spacing:normal;text-anchor:start;fill:#feb128;fill-opacity:1;stroke:#feb128;stroke-width:0;stroke-linecap:butt;stroke-linejoin:miter;stroke-miterlimit:10.43299961;stroke-dasharray:none;stroke-dashoffset:0;stroke-opacity:1"
         d="M 0.6454774,0.37444089 L 0.64533851,0.36890274 L 0.64492185,0.36343402 L 0.64422741,0.35805211 L 0.64328992,0.35273964 L 0.64207465,0.34754871 L 0.64063368,0.34242721 L 0.63893231,0.33742724 L 0.63700524,0.3325488 L 0.63485247,0.32777453 L 0.63247401,0.32313914 L 0.62988722,0.31862528 L 0.6270921,0.31426767 L 0.62408865,0.31003158 L 0.62089423,0.30596911 L 0.61750883,0.30206289 L 0.61394983,0.29833027 L 0.61019985,0.29477127 L 0.60629363,0.29138587 L 0.60223115,0.28819145 L 0.59801243,0.28518799 L 0.59363746,0.28239287 L 0.58914096,0.27978872 L 0.58448821,0.27741027 L 0.5797313,0.2752575 L 0.57483549,0.27333043 L 0.56983553,0.27164641 L 0.56473139,0.27018809 L 0.55952309,0.26899018 L 0.55422799,0.26803533 L 0.54884608,0.26735825 L 0.54337736,0.26694158 L 0.5378392,0.26680269 C 0.47839514,0.26680269 0.430201,0.31499683 0.430201,0.37444089 C 0.430201,0.43388496 0.47839514,0.48207909 0.5378392,0.48207909 C 0.59726591,0.48207909 0.6454774,0.43388496 0.6454774,0.37444089 z " />
      <path
         id="path76"
         style="font-style:normal;font-variant:normal;font-weight:normal;font-stretch:normal;letter-spacing:normal;word-spacing:normal;text-anchor:start;fill:#feae27;fill-opacity:1;stroke:#feae27;stroke-width:0;stroke-linecap:butt;stroke-linejoin:miter;stroke-miterlimit:10.43299961;stroke-dasharray:none;stroke-dashoffset:0;stroke-opacity:1"
         d="M 0.64007813,0.37444089 L 0.6399566,0.36918051 L 0.6395573,0.36398957 L 0.63891495,0.35886808 L 0.63801217,0.35383339 L 0.63686635,0.3488855 L 0.63549483,0.34404178 L 0.63388026,0.33928487 L 0.63205735,0.33463212 L 0.63000875,0.3301009 L 0.62775182,0.32570857 L 0.62528656,0.3214204 L 0.62263033,0.31727112 L 0.61976576,0.31326073 L 0.61674495,0.30940659 L 0.6135158,0.30569133 L 0.61013041,0.30213233 L 0.60658876,0.29874693 L 0.60287351,0.29553515 L 0.59901937,0.29249697 L 0.59500898,0.28964977 L 0.5908597,0.28699354 L 0.58657153,0.28452828 L 0.58216184,0.28227135 L 0.57763062,0.28022275 L 0.57299523,0.27839984 L 0.56823831,0.27678527 L 0.56339459,0.27541375 L 0.55844671,0.27426792 L 0.55341202,0.27336515 L 0.54829052,0.2727228 L 0.54309959,0.27232349 L 0.5378392,0.2721846 C 0.48136387,0.2721846 0.43558291,0.31796556 0.43558291,0.37444089 C 0.43558291,0.43091623 0.48136387,0.47669718 0.5378392,0.47669718 C 0.59429718,0.47669718 0.64007813,0.43091623 0.64007813,0.37444089 z " />
      <path
         id="path78"
         style="font-style:normal;font-variant:normal;font-weight:normal;font-stretch:normal;letter-spacing:normal;word-spacing:normal;text-anchor:start;fill:#feac26;fill-opacity:1;stroke:#feac26;stroke-width:0;stroke-linecap:butt;stroke-linejoin:miter;stroke-miterlimit:10.43299961;stroke-dasharray:none;stroke-dashoffset:0;stroke-opacity:1"
         d="M 0.63469622,0.37444089 L 0.63457469,0.36945829 L 0.63419275,0.36452776 L 0.63358512,0.35968404 L 0.63273443,0.35490977 L 0.63165805,0.3502223 L 0.63033861,0.345639 L 0.6288282,0.34112514 L 0.6270921,0.3367328 L 0.62514767,0.33244464 L 0.62301227,0.32826063 L 0.62068589,0.32421552 L 0.61815119,0.32027457 L 0.61546023,0.31647252 L 0.61257831,0.3128267 L 0.60954013,0.30930242 L 0.60632835,0.30593439 L 0.60296031,0.30273996 L 0.59945339,0.29968443 L 0.59579022,0.29681986 L 0.59198816,0.29411155 L 0.58806458,0.2915942 L 0.5840021,0.28926783 L 0.57983546,0.28711506 L 0.5755473,0.28518799 L 0.5711376,0.28345189 L 0.5666411,0.28192413 L 0.56204044,0.28062205 L 0.55735297,0.27954567 L 0.55257869,0.27867762 L 0.54773497,0.27806998 L 0.54282181,0.27768804 L 0.5378392,0.27756651 C 0.4843326,0.27756651 0.44096482,0.32093429 0.44096482,0.37444089 C 0.44096482,0.42793014 0.4843326,0.47131527 0.5378392,0.47131527 C 0.59132844,0.47131527 0.63469622,0.42793014 0.63469622,0.37444089 z " />
      <path
         id="path80"
         style="font-style:normal;font-variant:normal;font-weight:normal;font-stretch:normal;letter-spacing:normal;word-spacing:normal;text-anchor:start;fill:#feaa25;fill-opacity:1;stroke:#feaa25;stroke-width:0;stroke-linecap:butt;stroke-linejoin:miter;stroke-miterlimit:10.43299961;stroke-dasharray:none;stroke-dashoffset:0;stroke-opacity:1"
         d="M 0.62933167,0.37444089 L 0.62921015,0.36973606 L 0.62884556,0.36508332 L 0.62827265,0.36050001 L 0.62747405,0.35600351 L 0.62644975,0.35157646 L 0.62521712,0.34723621 L 0.62377615,0.34298276 L 0.62212686,0.33883348 L 0.62030395,0.33477101 L 0.61827272,0.33083006 L 0.61608523,0.32699328 L 0.61368941,0.32329539 L 0.61115471,0.31970166 L 0.60842903,0.31624682 L 0.6055471,0.31293087 L 0.60252629,0.30975381 L 0.59934923,0.30671563 L 0.59603328,0.30385107 L 0.59257844,0.30112539 L 0.58898471,0.29857332 L 0.58526946,0.29619487 L 0.58143267,0.29399002 L 0.57749173,0.29197614 L 0.57344661,0.29013588 L 0.56929734,0.28850394 L 0.56504389,0.28706298 L 0.56070364,0.28583035 L 0.55627658,0.28480605 L 0.55176273,0.28400745 L 0.54717942,0.28341717 L 0.54254403,0.28306995 L 0.5378392,0.28294842 C 0.48730133,0.28294842 0.44634673,0.32392038 0.44634673,0.37444089 C 0.44634673,0.4249614 0.48730133,0.46593336 0.5378392,0.46593336 C 0.58835971,0.46593336 0.62933167,0.4249614 0.62933167,0.37444089 z " />
      <path
         id="path82"
         style="font-style:normal;font-variant:normal;font-weight:normal;font-stretch:normal;letter-spacing:normal;word-spacing:normal;text-anchor:start;fill:#fea823;fill-opacity:1;stroke:#fea823;stroke-width:0;stroke-linecap:butt;stroke-linejoin:miter;stroke-miterlimit:10.43299961;stroke-dasharray:none;stroke-dashoffset:0;stroke-opacity:1"
         d="M 0.6239324,0.37444089 L 0.62382824,0.37001384 L 0.62349838,0.36563887 L 0.62294282,0.36133334 L 0.6221963,0.35707989 L 0.62122409,0.35291325 L 0.6200609,0.34883342 L 0.61870674,0.34484039 L 0.61717897,0.3409168 L 0.61544287,0.33711474 L 0.61355052,0.33339949 L 0.6114672,0.3297884 L 0.60922763,0.32629884 L 0.60683182,0.32291345 L 0.60427975,0.31966694 L 0.60157143,0.31654196 L 0.59872423,0.31355587 L 0.59572078,0.31070866 L 0.5925958,0.30800035 L 0.58934929,0.30543092 L 0.58598126,0.3030351 L 0.58247433,0.30079553 L 0.57888061,0.29872957 L 0.57516535,0.29681986 L 0.57134593,0.29510112 L 0.56743971,0.293556 L 0.56344668,0.29220184 L 0.55934948,0.29103865 L 0.55518284,0.2900838 L 0.55094676,0.28931991 L 0.54664123,0.28878172 L 0.54226626,0.28845186 L 0.5378392,0.28833033 C 0.49028742,0.28833033 0.45172864,0.32688912 0.45172864,0.37444089 C 0.45172864,0.42199267 0.49028742,0.46055145 0.5378392,0.46055145 C 0.58539098,0.46055145 0.6239324,0.42199267 0.6239324,0.37444089 z " />
      <path
         id="path84"
         style="font-style:normal;font-variant:normal;font-weight:normal;font-stretch:normal;letter-spacing:normal;word-spacing:normal;text-anchor:start;fill:#fea522;fill-opacity:1;stroke:#fea522;stroke-width:0;stroke-linecap:butt;stroke-linejoin:miter;stroke-miterlimit:10.43299961;stroke-dasharray:none;stroke-dashoffset:0;stroke-opacity:1"
         d="M 0.61856785,0.37444089 L 0.61846369,0.37029162 L 0.61815119,0.36617706 L 0.61763036,0.36214931 L 0.61691856,0.35817364 L 0.61601579,0.35426741 L 0.6149394,0.35043063 L 0.61367205,0.34668066 L 0.61221373,0.34301748 L 0.61059915,0.33944112 L 0.60881097,0.33595156 L 0.60686654,0.33258352 L 0.60476586,0.32930229 L 0.60252629,0.32614259 L 0.60013047,0.32308706 L 0.59759577,0.32015305 L 0.59492217,0.31735793 L 0.59210969,0.31468433 L 0.58917568,0.31214963 L 0.58613751,0.30975381 L 0.58296044,0.30749688 L 0.57969657,0.3053962 L 0.57631118,0.30345177 L 0.57283898,0.30166358 L 0.56926261,0.30004901 L 0.56558208,0.29860805 L 0.56183211,0.29734069 L 0.55801269,0.29624695 L 0.55410646,0.29534418 L 0.55013079,0.29463238 L 0.54608568,0.29412891 L 0.54198848,0.29381641 L 0.5378392,0.29371224 C 0.49325616,0.29371224 0.45711055,0.32985785 0.45711055,0.37444089 C 0.45711055,0.41902394 0.49325616,0.45516954 0.5378392,0.45516954 C 0.58242225,0.45516954 0.61856785,0.41902394 0.61856785,0.37444089 z " />
      <path
         id="path86"
         style="font-style:normal;font-variant:normal;font-weight:normal;font-stretch:normal;letter-spacing:normal;word-spacing:normal;text-anchor:start;fill:#fea321;fill-opacity:1;stroke:#fea321;stroke-width:0;stroke-linecap:butt;stroke-linejoin:miter;stroke-miterlimit:10.43299961;stroke-dasharray:none;stroke-dashoffset:0;stroke-opacity:1"
         d="M 0.61316858,0.37444089 L 0.61308178,0.37056939 L 0.61278664,0.36673261 L 0.61230053,0.36296527 L 0.61164081,0.35925002 L 0.61080749,0.35560421 L 0.60978319,0.35202784 L 0.60860264,0.34853828 L 0.60724848,0.34511817 L 0.60575544,0.34176749 L 0.60408878,0.33852099 L 0.60226587,0.33537864 L 0.60030408,0.33230575 L 0.5982034,0.32935438 L 0.59596383,0.32650717 L 0.59360274,0.3237815 L 0.59110275,0.32115999 L 0.5884986,0.31866 L 0.58575556,0.31629891 L 0.58290836,0.31405934 L 0.57995699,0.31195865 L 0.57690145,0.30999686 L 0.57374175,0.30819132 L 0.57049524,0.30652466 L 0.56716193,0.30501426 L 0.56374181,0.3036601 L 0.56023489,0.30247955 L 0.55665853,0.30147261 L 0.55301272,0.30062192 L 0.54931482,0.2999622 L 0.54553013,0.29949346 L 0.54171071,0.29919832 L 0.5378392,0.29909415 C 0.49622489,0.29909415 0.46249246,0.33282658 0.46249246,0.37444089 C 0.46249246,0.41605521 0.49622489,0.44978763 0.5378392,0.44978763 C 0.57945352,0.44978763 0.61316858,0.41605521 0.61316858,0.37444089 z " />
      <path
         id="path88"
         style="font-style:normal;font-variant:normal;font-weight:normal;font-stretch:normal;letter-spacing:normal;word-spacing:normal;text-anchor:start;fill:#ffa120;fill-opacity:1;stroke:#ffa120;stroke-width:0;stroke-linecap:butt;stroke-linejoin:miter;stroke-miterlimit:10.43299961;stroke-dasharray:none;stroke-dashoffset:0;stroke-opacity:1"
         d="M 0.60778667,0.37444089 L 0.60769987,0.37084717 L 0.60742209,0.36728816 L 0.60698807,0.36378124 L 0.60636307,0.36034376 L 0.60558183,0.35695837 L 0.60464433,0.35364242 L 0.60355059,0.35037855 L 0.6023006,0.34720149 L 0.60089435,0.34411123 L 0.59934923,0.34109041 L 0.59766521,0.3381564 L 0.5958423,0.33532656 L 0.59389787,0.33258352 L 0.59181455,0.32994465 L 0.5896097,0.32739258 L 0.58730069,0.3249794 L 0.58487015,0.32265303 L 0.58233545,0.32044818 L 0.57969657,0.31838223 L 0.57695354,0.31642043 L 0.57410633,0.31461489 L 0.57117232,0.31293087 L 0.56816887,0.31138574 L 0.56506125,0.3099795 L 0.56188419,0.30872951 L 0.55863768,0.3076184 L 0.55532173,0.30668091 L 0.55193633,0.30589967 L 0.5484815,0.30529203 L 0.54499193,0.30484065 L 0.54143293,0.30456287 L 0.5378392,0.30447606 C 0.49919362,0.30447606 0.46787437,0.33579531 0.46787437,0.37444089 C 0.46787437,0.41306912 0.49919362,0.44440572 0.5378392,0.44440572 C 0.57646743,0.44440572 0.60778667,0.41306912 0.60778667,0.37444089 z " />
      <path
         id="path90"
         style="font-style:normal;font-variant:normal;font-weight:normal;font-stretch:normal;letter-spacing:normal;word-spacing:normal;text-anchor:start;fill:#ff9e1f;fill-opacity:1;stroke:#ff9e1f;stroke-width:0;stroke-linecap:butt;stroke-linejoin:miter;stroke-miterlimit:10.43299961;stroke-dasharray:none;stroke-dashoffset:0;stroke-opacity:1"
         d="M 0.60242212,0.37444089 L 0.60233532,0.37110758 L 0.6020749,0.36784371 L 0.6016756,0.36459721 L 0.60110269,0.36142014 L 0.60037352,0.35829516 L 0.59950547,0.35523963 L 0.59849854,0.35223618 L 0.59733535,0.34930217 L 0.59605064,0.3464376 L 0.59462703,0.34365984 L 0.59306454,0.34095153 L 0.59138053,0.33833001 L 0.58959234,0.33579531 L 0.58766527,0.33336477 L 0.58563404,0.33102103 L 0.58349863,0.32878146 L 0.58125906,0.3266287 L 0.57891533,0.32459746 L 0.57646743,0.32268775 L 0.57393272,0.32088221 L 0.57132857,0.31921555 L 0.56862026,0.31765306 L 0.56582513,0.31622946 L 0.56297793,0.31492739 L 0.56004392,0.31378156 L 0.55704047,0.31275726 L 0.55396757,0.31188921 L 0.55084259,0.31117741 L 0.54766553,0.3106045 L 0.54443638,0.31018783 L 0.54115515,0.30994478 L 0.5378392,0.30985797 C 0.50216235,0.30985797 0.47325628,0.3387814 0.47325628,0.37444089 C 0.47325628,0.41010039 0.50216235,0.43902381 0.5378392,0.43902381 C 0.5734987,0.43902381 0.60242212,0.41010039 0.60242212,0.37444089 z " />
      <path
         id="path92"
         style="font-style:normal;font-variant:normal;font-weight:normal;font-stretch:normal;letter-spacing:normal;word-spacing:normal;text-anchor:start;fill:#ff9c1d;fill-opacity:1;stroke:#ff9c1d;stroke-width:0;stroke-linecap:butt;stroke-linejoin:miter;stroke-miterlimit:10.43299961;stroke-dasharray:none;stroke-dashoffset:0;stroke-opacity:1"
         d="M 0.59702285,0.37444089 L 0.59695341,0.37138536 L 0.59672771,0.36838191 L 0.59634577,0.36543054 L 0.59582494,0.36251389 L 0.59516523,0.35964932 L 0.59436662,0.35683684 L 0.59344649,0.35407644 L 0.5923701,0.35140285 L 0.59118956,0.34878134 L 0.58988748,0.34622927 L 0.58846388,0.34374665 L 0.58691875,0.34133347 L 0.58526946,0.33902445 L 0.58351599,0.33678489 L 0.58165837,0.33463212 L 0.57969657,0.33258352 L 0.57763062,0.33062173 L 0.57549521,0.3287641 L 0.57325564,0.32699328 L 0.57092927,0.32534399 L 0.56853345,0.32381622 L 0.56605083,0.32239262 L 0.56349876,0.32107318 L 0.56087725,0.31989263 L 0.55818629,0.31883361 L 0.55544326,0.31789612 L 0.55263078,0.31709751 L 0.54976621,0.31643779 L 0.54684956,0.31591696 L 0.54388083,0.31555238 L 0.54087738,0.31532669 L 0.5378392,0.31523988 C 0.50514844,0.31523988 0.47863819,0.34175013 0.47863819,0.37444089 C 0.47863819,0.40713166 0.50514844,0.4336419 0.5378392,0.4336419 C 0.57052997,0.4336419 0.59702285,0.40713166 0.59702285,0.37444089 z " />
      <path
         id="path94"
         style="font-style:normal;font-variant:normal;font-weight:normal;font-stretch:normal;letter-spacing:normal;word-spacing:normal;text-anchor:start;fill:#ff9a1c;fill-opacity:1;stroke:#ff9a1c;stroke-width:0;stroke-linecap:butt;stroke-linejoin:miter;stroke-miterlimit:10.43299961;stroke-dasharray:none;stroke-dashoffset:0;stroke-opacity:1"
         d="M 0.5916583,0.37444089 L 0.59158886,0.37166313 L 0.59138053,0.36893746 L 0.59103331,0.3662465 L 0.59056456,0.36359027 L 0.58995692,0.36098612 L 0.58922776,0.35843405 L 0.58839443,0.35593407 L 0.58742222,0.35348617 L 0.58634584,0.35110771 L 0.58514793,0.34878134 L 0.58386321,0.34654177 L 0.58245697,0.34435428 L 0.58096393,0.34223624 L 0.57936672,0.340205 L 0.57766534,0.33826057 L 0.57589451,0.33638558 L 0.57401953,0.3345974 L 0.57205773,0.33291338 L 0.5700265,0.33131617 L 0.56792582,0.32980576 L 0.56573833,0.32841688 L 0.5634814,0.32711481 L 0.56117239,0.32593426 L 0.55877657,0.32485788 L 0.55632867,0.32388566 L 0.55382868,0.32303497 L 0.55127662,0.32232317 L 0.54867247,0.32171554 L 0.54603359,0.32124679 L 0.54334264,0.32089957 L 0.5405996,0.32069124 L 0.5378392,0.32062179 C 0.50811717,0.32062179 0.4840201,0.34471886 0.4840201,0.37444089 C 0.4840201,0.40416293 0.50811717,0.42825999 0.5378392,0.42825999 C 0.56754387,0.42825999 0.5916583,0.40416293 0.5916583,0.37444089 z " />
      <path
         id="path96"
         style="font-style:normal;font-variant:normal;font-weight:normal;font-stretch:normal;letter-spacing:normal;word-spacing:normal;text-anchor:start;fill:#ff981b;fill-opacity:1;stroke:#ff981b;stroke-width:0;stroke-linecap:butt;stroke-linejoin:miter;stroke-miterlimit:10.43299961;stroke-dasharray:none;stroke-dashoffset:0;stroke-opacity:1"
         d="M 0.58625903,0.37444089 L 0.58620695,0.37194091 L 0.58601598,0.36949301 L 0.58570348,0.36706247 L 0.58528682,0.36468401 L 0.58474863,0.36234028 L 0.58408891,0.36003126 L 0.58332502,0.3577917 L 0.58245697,0.35558685 L 0.58148476,0.35343408 L 0.58042574,0.35135076 L 0.57926255,0.34931953 L 0.5779952,0.34735773 L 0.57664104,0.34546539 L 0.57520008,0.34362512 L 0.57368967,0.34187166 L 0.57207509,0.34018764 L 0.57039108,0.33859043 L 0.56863762,0.33706266 L 0.56681471,0.3356217 L 0.564905,0.3342849 L 0.56294321,0.33301755 L 0.56091197,0.33185436 L 0.55882865,0.33077798 L 0.55669325,0.32980576 L 0.5544884,0.32893771 L 0.55223147,0.32819119 L 0.54993982,0.32753147 L 0.54759609,0.32699328 L 0.54521763,0.32655926 L 0.54278709,0.32626412 L 0.54032183,0.32607315 L 0.5378392,0.3260037 C 0.5110859,0.3260037 0.48940201,0.34768759 0.48940201,0.37444089 C 0.48940201,0.4011942 0.5110859,0.42287808 0.5378392,0.42287808 C 0.56457514,0.42287808 0.58625903,0.4011942 0.58625903,0.37444089 z " />
      <path
         id="path98"
         style="font-style:normal;font-variant:normal;font-weight:normal;font-stretch:normal;letter-spacing:normal;word-spacing:normal;text-anchor:start;fill:#ff951a;fill-opacity:1;stroke:#ff951a;stroke-width:0;stroke-linecap:butt;stroke-linejoin:miter;stroke-miterlimit:10.43299961;stroke-dasharray:none;stroke-dashoffset:0;stroke-opacity:1"
         d="M 0.58087712,0.37444089 L 0.58082504,0.37221869 L 0.58065143,0.3700312 L 0.58039101,0.36787844 L 0.58000907,0.36576039 L 0.57952296,0.36367707 L 0.57895005,0.36164584 L 0.57827297,0.35963196 L 0.57749173,0.35768753 L 0.57664104,0.35577782 L 0.57568618,0.35392019 L 0.57464452,0.35211465 L 0.57353342,0.35036119 L 0.57233551,0.34867717 L 0.5710508,0.3470626 L 0.56969664,0.34550011 L 0.56827304,0.3439897 L 0.56677999,0.3425661 L 0.5652175,0.34121194 L 0.56358557,0.33994459 L 0.56190155,0.33874668 L 0.56014809,0.33761821 L 0.5583599,0.33657655 L 0.55650228,0.33563906 L 0.55459257,0.33477101 L 0.55263078,0.33400713 L 0.55063426,0.33333005 L 0.54858566,0.33273977 L 0.54650234,0.33227103 L 0.5443843,0.33188908 L 0.54223154,0.33161131 L 0.54004405,0.3314377 L 0.5378392,0.33138561 C 0.51405463,0.33138561 0.49478392,0.35065632 0.49478392,0.37444089 C 0.49478392,0.3982081 0.51405463,0.41749617 0.5378392,0.41749617 C 0.56160641,0.41749617 0.58087712,0.3982081 0.58087712,0.37444089 z " />
      <path
         id="path100"
         style="font-style:normal;font-variant:normal;font-weight:normal;font-stretch:normal;letter-spacing:normal;word-spacing:normal;text-anchor:start;fill:#ff9319;fill-opacity:1;stroke:#ff9319;stroke-width:0;stroke-linecap:butt;stroke-linejoin:miter;stroke-miterlimit:10.43299961;stroke-dasharray:none;stroke-dashoffset:0;stroke-opacity:1"
         d="M 0.57551257,0.37444089 L 0.57546049,0.37249646 L 0.57530424,0.37058675 L 0.57507855,0.3686944 L 0.57474869,0.36685414 L 0.57431466,0.36503123 L 0.57381119,0.36324305 L 0.57322092,0.36148959 L 0.57254384,0.35977085 L 0.57179732,0.35810419 L 0.57096399,0.35648962 L 0.57004386,0.35490977 L 0.56907164,0.353382 L 0.56802998,0.35190632 L 0.56690152,0.35048271 L 0.56572097,0.3491112 L 0.56447098,0.34780912 L 0.5631689,0.34655913 L 0.56179738,0.34537858 L 0.56037378,0.34425012 L 0.5588981,0.34320845 L 0.55737033,0.34221888 L 0.55579048,0.34131611 L 0.55415854,0.34048278 L 0.55249189,0.33973625 L 0.55079051,0.33905918 L 0.54903705,0.3384689 L 0.54724887,0.33794807 L 0.54542596,0.33753141 L 0.54356833,0.33720155 L 0.54169334,0.3369585 L 0.53976627,0.33681961 L 0.5378392,0.33676752 C 0.51702336,0.33676752 0.50016583,0.35362505 0.50016583,0.37444089 C 0.50016583,0.39523937 0.51702336,0.41211426 0.5378392,0.41211426 C 0.55863768,0.41211426 0.57551257,0.39523937 0.57551257,0.37444089 z " />
      <path
         id="path102"
         style="font-style:normal;font-variant:normal;font-weight:normal;font-stretch:normal;letter-spacing:normal;word-spacing:normal;text-anchor:start;fill:#ff9118;fill-opacity:1;stroke:#ff9118;stroke-width:0;stroke-linecap:butt;stroke-linejoin:miter;stroke-miterlimit:10.43299961;stroke-dasharray:none;stroke-dashoffset:0;stroke-opacity:1"
         d="M 0.5701133,0.37444089 L 0.57007858,0.37277424 L 0.56995705,0.3711423 L 0.56974872,0.36952773 L 0.56947094,0.36793052 L 0.56910636,0.36636803 L 0.56867234,0.36484026 L 0.56816887,0.36334722 L 0.5675786,0.36187153 L 0.56693624,0.36044793 L 0.56622444,0.35905905 L 0.56544319,0.35770489 L 0.56460986,0.35638545 L 0.56370709,0.3551181 L 0.56275224,0.35390283 L 0.56172794,0.35273964 L 0.56066892,0.35161118 L 0.55954045,0.3505348 L 0.55837727,0.34952786 L 0.55714463,0.348573 L 0.55587728,0.34767023 L 0.55457521,0.34681954 L 0.55322105,0.34605566 L 0.55183217,0.34534386 L 0.55040857,0.34468414 L 0.54893288,0.34411123 L 0.54743984,0.34360776 L 0.54589471,0.34317373 L 0.54433222,0.34280915 L 0.54275237,0.34253138 L 0.54113779,0.34232304 L 0.5394885,0.34220152 L 0.5378392,0.34214943 C 0.52000946,0.34214943 0.50554774,0.35661115 0.50554774,0.37444089 C 0.50554774,0.39227064 0.52000946,0.40673235 0.5378392,0.40673235 C 0.55566895,0.40673235 0.5701133,0.39227064 0.5701133,0.37444089 z " />
      <path
         id="path104"
         style="font-style:normal;font-variant:normal;font-weight:normal;font-stretch:normal;letter-spacing:normal;word-spacing:normal;text-anchor:start;fill:#ff8e16;fill-opacity:1;stroke:#ff8e16;stroke-width:0;stroke-linecap:butt;stroke-linejoin:miter;stroke-miterlimit:10.43299961;stroke-dasharray:none;stroke-dashoffset:0;stroke-opacity:1"
         d="M 0.56474875,0.37444089 L 0.56471403,0.37305201 L 0.56460986,0.3716805 L 0.56443626,0.3703437 L 0.5641932,0.36902426 L 0.56389806,0.36772219 L 0.56353348,0.36643747 L 0.56311682,0.36518748 L 0.56263071,0.36397221 L 0.56209252,0.3627743 L 0.56150225,0.36161112 L 0.56084253,0.36048265 L 0.56014809,0.35938891 L 0.55940157,0.35834725 L 0.55860296,0.35732295 L 0.55775227,0.35635073 L 0.55686686,0.35541324 L 0.55592937,0.35452783 L 0.55495715,0.35367714 L 0.55393285,0.35287853 L 0.55287383,0.35213201 L 0.55178009,0.35142021 L 0.55065162,0.35077785 L 0.54950579,0.35018758 L 0.54830789,0.34964939 L 0.54709262,0.34916328 L 0.54584262,0.34874661 L 0.54455791,0.34838203 L 0.54325583,0.34806954 L 0.5419364,0.34784384 L 0.54058224,0.34767023 L 0.53921072,0.34756607 L 0.5378392,0.34753134 C 0.52297819,0.34753134 0.51092965,0.35957988 0.51092965,0.37444089 C 0.51092965,0.38930191 0.52297819,0.40135044 0.5378392,0.40135044 C 0.55270022,0.40135044 0.56474875,0.38930191 0.56474875,0.37444089 z " />
      <path
         id="path106"
         style="font-style:normal;font-variant:normal;font-weight:normal;font-stretch:normal;letter-spacing:normal;word-spacing:normal;text-anchor:start;fill:#ff8c15;fill-opacity:1;stroke:#ff8c15;stroke-width:0;stroke-linecap:butt;stroke-linejoin:miter;stroke-miterlimit:10.43299961;stroke-dasharray:none;stroke-dashoffset:0;stroke-opacity:1"
         d="M 0.55934948,0.37444089 L 0.55933212,0.37332979 L 0.55924532,0.37223605 L 0.55910643,0.37115967 L 0.55891546,0.37010064 L 0.5586724,0.36905898 L 0.55839463,0.36803469 L 0.55804741,0.36704511 L 0.55766547,0.36605553 L 0.55723144,0.36510068 L 0.55676269,0.36418054 L 0.55624186,0.36327777 L 0.55568631,0.36240972 L 0.55507868,0.36155903 L 0.55443632,0.36074307 L 0.55375924,0.35996182 L 0.55304744,0.3592153 L 0.55230092,0.3585035 L 0.55151967,0.35782642 L 0.5507037,0.35718406 L 0.54987038,0.35659379 L 0.54900233,0.35603823 L 0.54809955,0.3555174 L 0.54716206,0.3550313 L 0.5462072,0.35461463 L 0.54523499,0.35421533 L 0.54422805,0.35388547 L 0.54322111,0.35359033 L 0.54217945,0.35334728 L 0.54112043,0.35315631 L 0.54002669,0.35301742 L 0.53893295,0.35294798 L 0.5378392,0.35291325 C 0.52594692,0.35291325 0.51631156,0.36254861 0.51631156,0.37444089 C 0.51631156,0.38633318 0.52594692,0.39596853 0.5378392,0.39596853 C 0.54971413,0.39596853 0.55934948,0.38633318 0.55934948,0.37444089 z " />
      <path
         id="path108"
         style="font-style:normal;font-variant:normal;font-weight:normal;font-stretch:normal;letter-spacing:normal;word-spacing:normal;text-anchor:start;fill:#ff8a14;fill-opacity:1;stroke:#ff8a14;stroke-width:0;stroke-linecap:butt;stroke-linejoin:miter;stroke-miterlimit:10.43299961;stroke-dasharray:none;stroke-dashoffset:0;stroke-opacity:1"
         d="M 0.55396757,0.37444089 L 0.55395021,0.37360757 L 0.55388077,0.3727916 L 0.55379396,0.37197563 L 0.55363771,0.37119439 L 0.5534641,0.37041314 L 0.55323841,0.3696319 L 0.55299536,0.36888537 L 0.55270022,0.36815621 L 0.55238772,0.36744441 L 0.55202314,0.36674997 L 0.5516412,0.36607289 L 0.55120717,0.36541317 L 0.55077315,0.36478818 L 0.55028704,0.36418054 L 0.54978357,0.36359027 L 0.54924538,0.36303472 L 0.54868983,0.36249653 L 0.54809955,0.36199306 L 0.54749192,0.36150695 L 0.54684956,0.36105556 L 0.5462072,0.3606389 L 0.54553013,0.3602396 L 0.54483569,0.35989238 L 0.54410652,0.35956252 L 0.54337736,0.35928474 L 0.54263084,0.35902433 L 0.54186696,0.35879863 L 0.54108571,0.35862502 L 0.5402871,0.35848614 L 0.5394885,0.35838197 L 0.53867253,0.35831253 L 0.5378392,0.35829516 C 0.52891565,0.35829516 0.52169347,0.3655347 0.52169347,0.37444089 C 0.52169347,0.38334709 0.52891565,0.39058662 0.5378392,0.39058662 C 0.5467454,0.39058662 0.55396757,0.38334709 0.55396757,0.37444089 z " />
      <path
         id="path110"
         style="font-style:normal;font-variant:normal;font-weight:normal;font-stretch:normal;letter-spacing:normal;word-spacing:normal;text-anchor:start;fill:#ff8713;fill-opacity:1;stroke:#ff8713;stroke-width:0;stroke-linecap:butt;stroke-linejoin:miter;stroke-miterlimit:10.43299961;stroke-dasharray:none;stroke-dashoffset:0;stroke-opacity:1"
         d="M 0.54860302,0.37444089 L 0.54858566,0.37388534 L 0.54853358,0.37334715 L 0.54846414,0.37280896 L 0.54837733,0.37227077 L 0.5482558,0.37174994 L 0.54811692,0.37124647 L 0.5479433,0.370743 L 0.54775233,0.37025689 L 0.54752664,0.36977079 L 0.54730095,0.36930204 L 0.54704053,0.36886801 L 0.54676276,0.36841663 L 0.54645026,0.36799996 L 0.54613776,0.36760066 L 0.54579054,0.36720136 L 0.54544332,0.36683678 L 0.54506138,0.3664722 L 0.54467944,0.36614234 L 0.54426277,0.36581248 L 0.54384611,0.36551734 L 0.54341208,0.36523956 L 0.5429607,0.36497915 L 0.54249195,0.3647361 L 0.5420232,0.36452776 L 0.5415371,0.36433679 L 0.54103363,0.36416318 L 0.54053016,0.36402429 L 0.54000933,0.36390277 L 0.53947114,0.3637986 L 0.53893295,0.36372916 L 0.53839476,0.36369444 L 0.5378392,0.36367707 C 0.53188438,0.36367707 0.52707538,0.36850343 0.52707538,0.37444089 C 0.52707538,0.38037836 0.53188438,0.38520471 0.5378392,0.38520471 C 0.54377666,0.38520471 0.54860302,0.38037836 0.54860302,0.37444089 z " />
      <path
         id="path112"
         style="font-style:normal;font-variant:normal;font-weight:normal;font-stretch:normal;letter-spacing:normal;word-spacing:normal;text-anchor:start;fill:#ff8512;fill-opacity:1;stroke:#ff8512;stroke-width:0;stroke-linecap:butt;stroke-linejoin:miter;stroke-miterlimit:10.43299961;stroke-dasharray:none;stroke-dashoffset:0;stroke-opacity:1"
         d="M 0.54320375,0.37444089 L 0.54320375,0.37416312 L 0.54318639,0.37388534 L 0.54315167,0.37362493 L 0.54309959,0.37334715 L 0.5430475,0.37308674 L 0.5429607,0.37284368 L 0.54289125,0.37258327 L 0.54278709,0.37234021 L 0.54268292,0.37211452 L 0.5425614,0.37187147 L 0.54243987,0.37164577 L 0.54230098,0.37143744 L 0.54214473,0.37122911 L 0.54198848,0.37102078 L 0.54181487,0.37082981 L 0.54164126,0.37063884 L 0.54145029,0.37046523 L 0.54125932,0.37029162 L 0.54105099,0.37013537 L 0.54084266,0.36997912 L 0.54061696,0.36984023 L 0.54039127,0.36970134 L 0.54016558,0.36959718 L 0.53992252,0.36947565 L 0.53967947,0.36938884 L 0.53943641,0.36930204 L 0.539176,0.36923259 L 0.53891559,0.36916315 L 0.53865517,0.36912843 L 0.53837739,0.36909371 L 0.53811698,0.36907635 L 0.5378392,0.36905898 C 0.53487047,0.36905898 0.53245729,0.37147216 0.53245729,0.37444089 C 0.53245729,0.37740963 0.53487047,0.3798228 0.5378392,0.3798228 C 0.54080793,0.3798228 0.54320375,0.37740963 0.54320375,0.37444089 z " />
    </g>
    <g
       transform="translate(5.694444e-2,3.333333e-2)"
       id="g1501">
      <path
         id="path114"
         style="font-style:normal;font-variant:normal;font-weight:normal;font-stretch:normal;letter-spacing:normal;word-spacing:normal;text-anchor:start;fill:#000000;fill-opacity:1;stroke:#000000;stroke-width:0;stroke-linecap:butt;stroke-linejoin:miter;stroke-miterlimit:10.43299961;stroke-dasharray:none;stroke-dashoffset:0;stroke-opacity:1"
         d="M 0.3132521,0.24557019 L 0.31466355,0.24557019 L 0.31603507,0.24553547 L 0.3173545,0.24550075 L 0.31863922,0.2454313 L 0.31988921,0.24536186 L 0.32108712,0.24527505 L 0.32225031,0.24515353 L 0.32336141,0.245032 L 0.32445515,0.24487575 L 0.32549681,0.2447195 L 0.32650375,0.24454589 L 0.32747597,0.24433756 L 0.32841346,0.24412923 L 0.32929887,0.24388617 L 0.33016692,0.24364312 L 0.33100025,0.24336534 L 0.33256274,0.24277507 L 0.3340037,0.24211535 L 0.33532314,0.24136883 L 0.33653841,0.24057022 L 0.33764951,0.23968481 L 0.33865645,0.2387126 L 0.33955922,0.2376883 L 0.34039255,0.23657719 L 0.34112171,0.23537928 L 0.34179879,0.23411193 L 0.34238906,0.23277513 L 0.34292726,0.23135153 L 0.343396,0.22985849 L 0.34383003,0.22827864 L 0.34421197,0.22662934 L 0.34455919,0.22489324 L 0.34485433,0.22307034 L 0.34514946,0.22117799 L 0.34540988,0.21919883 L 0.34567029,0.21713287 L 0.34591335,0.21498011 L 0.3461564,0.2127579 L 0.34639946,0.21043153 L 0.34665987,0.20803571 L 0.44346481,0.20216769 C 0.43580861,0.26293119 0.42813504,0.28029219 0.3132521,0.28029219 L 0.3132521,0.24557019 z " />
      <path
         id="path116"
         style="font-style:normal;font-variant:normal;font-weight:normal;font-stretch:normal;letter-spacing:normal;word-spacing:normal;text-anchor:start;fill:none;fill-opacity:1;stroke:#000000;stroke-width:0.0017361;stroke-linecap:butt;stroke-linejoin:miter;stroke-miterlimit:10.43299961;stroke-dasharray:none;stroke-dashoffset:0;stroke-opacity:1"
         d="M 0.3132521,0.24557019 L 0.31466355,0.24557019 L 0.31603507,0.24553547 L 0.3173545,0.24550075 L 0.31863922,0.2454313 L 0.31988921,0.24536186 L 0.32108712,0.24527505 L 0.32225031,0.24515353 L 0.32336141,0.245032 L 0.32445515,0.24487575 L 0.32549681,0.2447195 L 0.32650375,0.24454589 L 0.32747597,0.24433756 L 0.32841346,0.24412923 L 0.32929887,0.24388617 L 0.33016692,0.24364312 L 0.33100025,0.24336534 L 0.33256274,0.24277507 L 0.3340037,0.24211535 L 0.33532314,0.24136883 L 0.33653841,0.24057022 L 0.33764951,0.23968481 L 0.33865645,0.2387126 L 0.33955922,0.2376883 L 0.34039255,0.23657719 L 0.34112171,0.23537928 L 0.34179879,0.23411193 L 0.34238906,0.23277513 L 0.34292726,0.23135153 L 0.343396,0.22985849 L 0.34383003,0.22827864 L 0.34421197,0.22662934 L 0.34455919,0.22489324 L 0.34485433,0.22307034 L 0.34514946,0.22117799 L 0.34540988,0.21919883 L 0.34567029,0.21713287 L 0.34591335,0.21498011 L 0.3461564,0.2127579 L 0.34639946,0.21043153 L 0.34665987,0.20803571 L 0.44346481,0.20216769 C 0.43580861,0.26293119 0.42813504,0.28029219 0.3132521,0.28029219" />
      <path
         id="path118"
         style="font-style:normal;font-variant:normal;font-weight:normal;font-stretch:normal;letter-spacing:normal;word-spacing:normal;text-anchor:start;fill:#000000;fill-opacity:1;stroke:#000000;stroke-width:0;stroke-linecap:butt;stroke-linejoin:miter;stroke-miterlimit:10.43299961;stroke-dasharray:none;stroke-dashoffset:0;stroke-opacity:1"
         d="M 0.2874415,0.245032 L 0.28602831,0.245032 L 0.28465853,0.24499728 L 0.28333215,0.24496256 L 0.28204744,0.24489311 L 0.28080613,0.24482367 L 0.27960648,0.2447195 L 0.27844503,0.24461534 L 0.27732525,0.24449381 L 0.27624365,0.24433756 L 0.27519852,0.24418131 L 0.27419332,0.24399034 L 0.27322284,0.24379937 L 0.27228882,0.24359104 L 0.27138952,0.24334798 L 0.27052494,0.24310493 L 0.26969335,0.24282715 L 0.26812565,0.24223688 L 0.26668469,0.24157716 L 0.26536178,0.24083064 L 0.26414998,0.24003203 L 0.26304582,0.23914662 L 0.26204062,0.23817441 L 0.26112917,0.23715011 L 0.26030626,0.236039 L 0.25956494,0.23484109 L 0.25889828,0.23357374 L 0.25830106,0.23223694 L 0.25776634,0.23081334 L 0.25728892,0.2293203 L 0.25686183,0.22774044 L 0.25647989,0.22609115 L 0.25613614,0.22435505 L 0.25582538,0.22253214 L 0.25554066,0.2206398 L 0.25527504,0.21866064 L 0.2550233,0.21659468 L 0.25478025,0.21444192 L 0.25453893,0.21221971 L 0.25429241,0.20989334 L 0.25403546,0.20749752 L 0.157234,0.2016295 C 0.1648902,0.262393 0.1725464,0.279754 0.2874415,0.279754 L 0.2874415,0.245032 z " />
      <path
         id="path120"
         style="font-style:normal;font-variant:normal;font-weight:normal;font-stretch:normal;letter-spacing:normal;word-spacing:normal;text-anchor:start;fill:none;fill-opacity:1;stroke:#000000;stroke-width:0.0017361;stroke-linecap:butt;stroke-linejoin:miter;stroke-miterlimit:10.43299961;stroke-dasharray:none;stroke-dashoffset:0;stroke-opacity:1"
         d="M 0.2874415,0.245032 L 0.28602831,0.245032 L 0.28465853,0.24499728 L 0.28333215,0.24496256 L 0.28204744,0.24489311 L 0.28080613,0.24482367 L 0.27960648,0.2447195 L 0.27844503,0.24461534 L 0.27732525,0.24449381 L 0.27624365,0.24433756 L 0.27519852,0.24418131 L 0.27419332,0.24399034 L 0.27322284,0.24379937 L 0.27228882,0.24359104 L 0.27138952,0.24334798 L 0.27052494,0.24310493 L 0.26969335,0.24282715 L 0.26812565,0.24223688 L 0.26668469,0.24157716 L 0.26536178,0.24083064 L 0.26414998,0.24003203 L 0.26304582,0.23914662 L 0.26204062,0.23817441 L 0.26112917,0.23715011 L 0.26030626,0.236039 L 0.25956494,0.23484109 L 0.25889828,0.23357374 L 0.25830106,0.23223694 L 0.25776634,0.23081334 L 0.25728892,0.2293203 L 0.25686183,0.22774044 L 0.25647989,0.22609115 L 0.25613614,0.22435505 L 0.25582538,0.22253214 L 0.25554066,0.2206398 L 0.25527504,0.21866064 L 0.2550233,0.21659468 L 0.25478025,0.21444192 L 0.25453893,0.21221971 L 0.25429241,0.20989334 L 0.25403546,0.20749752 L 0.157234,0.2016295 C 0.1648902,0.262393 0.1725464,0.279754 0.2874415,0.279754" />
      <path
         id="path122"
         style="font-style:normal;font-variant:normal;font-weight:normal;font-stretch:normal;letter-spacing:normal;word-spacing:normal;text-anchor:start;fill:#000000;fill-opacity:1;stroke:#000000;stroke-width:0;stroke-linecap:butt;stroke-linejoin:miter;stroke-miterlimit:10.43299961;stroke-dasharray:none;stroke-dashoffset:0;stroke-opacity:1"
         d="M 0.3221635,0.2016295 L 0.32183364,0.20824404 L 0.32152114,0.2148065 L 0.32127809,0.22131687 L 0.3210524,0.22779253 L 0.31309585,0.23197653 L 0.32087879,0.23419874 C 0.32025379,0.25876455 0.32044476,0.28258384 0.32133017,0.30629897 L 0.313483,0.3057955 L 0.313483,0.314476 L 0.32164267,0.31430239 C 0.32211142,0.32496204 0.32270169,0.3356217 0.32343085,0.34633344 L 0.31704201,0.35301742 L 0.32414265,0.35640282 C 0.3246114,0.36261805 0.32509751,0.36886801 0.32565306,0.3751527 L 0.31792742,0.37457978 L 0.32645167,0.38428458 C 0.32773638,0.39838171 0.32921207,0.41268718 0.330844,0.4273225 L 0.2614,0.4273225 C 0.26466213,0.41261773 0.26731316,0.39822546 0.26946939,0.38402417 L 0.278761,0.3752395 L 0.27067077,0.37576033 C 0.27153188,0.36957981 0.2722975,0.36343402 0.27298326,0.35728823 L 0.27966377,0.35374658 L 0.27397978,0.34780912 C 0.27509262,0.33661128 0.27594678,0.32544815 0.27659782,0.31430239 L 0.2825457,0.314476 L 0.2825457,0.3057955 L 0.27703184,0.30629897 C 0.27819156,0.28333037 0.27878878,0.25899024 0.27891725,0.23536192 L 0.28652658,0.23232375 L 0.27894329,0.22921613 C 0.27897801,0.2197023 0.278761,0.21138638 0.278761,0.2016295 L 0.296122,0.2189905 L 0.3048025,0.2189905 L 0.3221635,0.2016295 z " />
      <path
         id="path124"
         style="font-style:normal;font-variant:normal;font-weight:normal;font-stretch:normal;letter-spacing:normal;word-spacing:normal;text-anchor:start;fill:none;fill-opacity:1;stroke:#000000;stroke-width:0.0017361;stroke-linecap:butt;stroke-linejoin:miter;stroke-miterlimit:10.43299961;stroke-dasharray:none;stroke-dashoffset:0;stroke-opacity:1"
         d="M 0.3221635,0.2016295 L 0.32183364,0.20824404 L 0.32152114,0.2148065 L 0.32127809,0.22131687 L 0.3210524,0.22779253 L 0.31309585,0.23197653 L 0.32087879,0.23419874 C 0.32025379,0.25876455 0.32044476,0.28258384 0.32133017,0.30629897 L 0.313483,0.3057955 L 0.313483,0.314476 L 0.32164267,0.31430239 C 0.32211142,0.32496204 0.32270169,0.3356217 0.32343085,0.34633344 L 0.31704201,0.35301742 L 0.32414265,0.35640282 C 0.3246114,0.36261805 0.32509751,0.36886801 0.32565306,0.3751527 L 0.31792742,0.37457978 L 0.32645167,0.38428458 C 0.32773638,0.39838171 0.32921207,0.41268718 0.330844,0.4273225 L 0.2614,0.4273225 C 0.26466213,0.41261773 0.26731316,0.39822546 0.26946939,0.38402417 L 0.278761,0.3752395 L 0.27067077,0.37576033 C 0.27153188,0.36957981 0.2722975,0.36343402 0.27298326,0.35728823 L 0.27966377,0.35374658 L 0.27397978,0.34780912 C 0.27509262,0.33661128 0.27594678,0.32544815 0.27659782,0.31430239 L 0.2825457,0.314476 L 0.2825457,0.3057955 L 0.27703184,0.30629897 C 0.27819156,0.28333037 0.27878878,0.25899024 0.27891725,0.23536192 L 0.28652658,0.23232375 L 0.27894329,0.22921613 C 0.27897801,0.2197023 0.278761,0.21138638 0.278761,0.2016295 L 0.296122,0.2189905 L 0.3048025,0.2189905 L 0.3221635,0.2016295 z " />
      <path
         style="font-style:normal;font-variant:normal;font-weight:normal;font-stretch:normal;letter-spacing:normal;word-spacing:normal;text-anchor:start;fill:#000000;fill-opacity:1;stroke:#000000;stroke-width:0;stroke-linecap:butt;stroke-linejoin:miter;stroke-miterlimit:10.43299961;stroke-dasharray:none;stroke-dashoffset:0;stroke-opacity:1"
         d="M 280.65625,225.75 L 278.21875,225.78125 L 275.90625,225.9375 L 273.65625,226.15625 L 271.46875,226.4375 L 269.375,226.84375 L 267.375,227.3125 L 265.4375,227.875 L 263.5625,228.53125 L 261.78125,229.28125 L 260.09375,230.09375 L 258.4375,230.96875 L 256.90625,231.9375 L 255.40625,233 L 254.03125,234.125 L 252.6875,235.34375 L 251.46875,236.625 L 250.28125,237.96875 L 249.1875,239.40625 L 248.15625,240.90625 L 247.21875,242.5 L 246.375,244.125 L 245.59375,245.84375 L 244.875,247.625 L 244.21875,249.5 L 243.65625,251.40625 L 243.1875,253.40625 L 242.78125,255.46875 L 242.4375,257.59375 L 242.15625,259.78125 L 241.96875,262.03125 L 241.875,264.34375 L 241.84375,266.71875 C 241.84375,292.36859 254.55642,307.6875 280.65625,307.6875 C 306.75609,307.68749 319.46875,292.36859 319.46875,266.71875 C 319.46876,241.08141 306.75608,225.75 280.65625,225.75 z M 279.6875,230.96875 C 279.99789,230.95276 280.33496,230.96875 280.65625,230.96875 C 297.10615,230.96875 299.15,252.19384 299.375,266.71875 C 299.15,282.14365 297.10615,302.4375 280.65625,302.4375 L 279.875,302.4375 L 279.15625,302.40625 L 278.40625,302.3125 L 277.71875,302.21875 L 277.03125,302.09375 L 276.375,301.9375 L 275.75,301.75 L 275.125,301.5625 L 274.53125,301.3125 L 273.9375,301.0625 L 272.8125,300.46875 L 271.78125,299.8125 L 270.8125,299.03125 L 269.90625,298.1875 L 269.0625,297.28125 L 268.28125,296.28125 L 267.53125,295.21875 L 266.875,294.09375 L 266.28125,292.90625 L 265.71875,291.65625 L 265.1875,290.375 L 264.71875,289.03125 L 264.3125,287.65625 L 263.9375,286.25 L 263.59375,284.8125 L 263.3125,283.34375 L 263.03125,281.84375 L 262.8125,280.3125 L 262.625,278.8125 L 262.46875,277.28125 L 262.3125,275.75 L 262.125,272.6875 L 262,269.65625 L 261.9375,268.1875 L 261.90625,266.71875 C 262.12684,252.47753 264.1057,231.77121 279.6875,230.96875 z "
         transform="scale(1.388889e-3,1.388889e-3)"
         id="path128" />
      <path
         id="path130"
         style="font-style:normal;font-variant:normal;font-weight:normal;font-stretch:normal;letter-spacing:normal;word-spacing:normal;text-anchor:start;fill:#000000;fill-opacity:1;stroke:#000000;stroke-width:0;stroke-linecap:butt;stroke-linejoin:miter;stroke-miterlimit:10.43299961;stroke-dasharray:none;stroke-dashoffset:0;stroke-opacity:1"
         d="M 0.5055651,0.3231565 L 0.51186715,0.3231565 C 0.52636358,0.3231565 0.52841218,0.32977104 0.53377673,0.34553483 L 0.53976627,0.34553483 L 0.53976627,0.3158996 L 0.4461384,0.3158996 L 0.4461384,0.34553483 L 0.45212795,0.34553483 C 0.45749249,0.32977104 0.45954109,0.3231565 0.47403753,0.3231565 L 0.48033957,0.3231565 L 0.48033957,0.40999622 C 0.48033957,0.41565591 0.47924583,0.41803437 0.47419378,0.41834686 L 0.46521814,0.41897186 L 0.46521814,0.4249614 L 0.52068653,0.4249614 L 0.52068653,0.41897186 L 0.5117109,0.41834686 C 0.50665885,0.41803437 0.5055651,0.41565591 0.5055651,0.40999622 L 0.5055651,0.3231565 z " />
      <path
         id="path132"
         style="font-style:normal;font-variant:normal;font-weight:normal;font-stretch:normal;letter-spacing:normal;word-spacing:normal;text-anchor:start;fill:#000000;fill-opacity:1;stroke:#000000;stroke-width:0;stroke-linecap:butt;stroke-linejoin:miter;stroke-miterlimit:10.43299961;stroke-dasharray:none;stroke-dashoffset:0;stroke-opacity:1"
         d="M 0.55466201,0.40966636 L 0.55466201,0.41039553 L 0.55464465,0.41108997 L 0.55462729,0.41174968 L 0.55459257,0.41235732 L 0.55454048,0.41293023 L 0.55447104,0.41346842 L 0.5544016,0.41397189 L 0.55429743,0.414458 L 0.5541759,0.41489202 L 0.55403702,0.41529133 L 0.55386341,0.41567327 L 0.55367243,0.41602049 L 0.5534641,0.41635035 L 0.55322105,0.41664549 L 0.55294327,0.4169059 L 0.55263078,0.41716632 L 0.55230092,0.41739201 L 0.55191897,0.41758298 L 0.55151967,0.41777395 L 0.55106828,0.41794756 L 0.55058218,0.41808645 L 0.55006135,0.41822534 L 0.54948843,0.41834686 L 0.5491933,0.41839895 L 0.5488808,0.41845103 L 0.54855094,0.41850311 L 0.54822108,0.41853783 L 0.54787386,0.41858992 L 0.54752664,0.41862464 L 0.5471447,0.41865936 L 0.54676276,0.41869408 L 0.54636345,0.4187288 L 0.54596415,0.41876353 L 0.54554749,0.41879825 L 0.54511346,0.41883297 L 0.54466208,0.41885033 L 0.54419333,0.41888505 L 0.54372458,0.41890242 L 0.54323847,0.41891978 L 0.54273501,0.4189545 L 0.54221418,0.41897186 L 0.54221418,0.4249614 L 0.63032125,0.4249614 L 0.6322136,0.39218384 L 0.62622405,0.39218384 C 0.62054701,0.40904137 0.61785605,0.41772187 0.59926242,0.41772187 C 0.58476599,0.41772187 0.57988754,0.41629827 0.57988754,0.40621152 L 0.57988754,0.3718541 L 0.59485273,0.3718541 C 0.60478322,0.3718541 0.60683182,0.3745277 0.60934916,0.38603804 L 0.61533871,0.38603804 L 0.61533871,0.34947578 L 0.60934916,0.34947578 C 0.60683182,0.36096876 0.60478322,0.36364235 0.59485273,0.36364235 L 0.57988754,0.36364235 L 0.57988754,0.32881619 C 0.57988754,0.32425024 0.58098129,0.3231565 0.58539098,0.3231565 L 0.59721382,0.3231565 C 0.61344636,0.3231565 0.61629356,0.32944118 0.621172,0.34504872 L 0.62716155,0.34504872 L 0.62716155,0.3158996 L 0.54221418,0.3158996 L 0.54221418,0.32188915 C 0.55341202,0.32235789 0.55466201,0.3231565 0.55466201,0.33117728 L 0.55466201,0.40966636 z " />
      <path
         id="path134"
         style="font-style:normal;font-variant:normal;font-weight:normal;font-stretch:normal;letter-spacing:normal;word-spacing:normal;text-anchor:start;fill:#000000;fill-opacity:1;stroke:#000000;stroke-width:0;stroke-linecap:butt;stroke-linejoin:miter;stroke-miterlimit:10.43299961;stroke-dasharray:none;stroke-dashoffset:0;stroke-opacity:1"
         d="M 0.77051132,0.4249614 L 0.77051132,0.41897186 C 0.75933084,0.41850311 0.75806349,0.41772187 0.75806349,0.40966636 L 0.75806349,0.33117728 C 0.75806349,0.3231565 0.75933084,0.32235789 0.77051132,0.32188915 L 0.77051132,0.3158996 L 0.72953936,0.3158996 C 0.72686577,0.323469 0.72150122,0.33890293 0.71724778,0.35056952 L 0.70384508,0.38744428 L 0.70337634,0.38744428 L 0.68462646,0.33905918 C 0.6819355,0.33197589 0.67830705,0.32267039 0.67625846,0.3158996 L 0.6346615,0.3158996 L 0.6346615,0.32188915 C 0.64585934,0.32235789 0.64710934,0.3231565 0.64710934,0.33117728 L 0.64710934,0.38523944 C 0.64710934,0.39817338 0.64695309,0.40431918 0.64631073,0.40983997 C 0.64585934,0.41534341 0.64427949,0.41772187 0.64065104,0.41819061 L 0.63513025,0.41897186 L 0.63513025,0.4249614 L 0.67280362,0.4249614 L 0.67280362,0.41897186 L 0.66429673,0.41819061 C 0.65986967,0.41786075 0.65813357,0.41534341 0.65766483,0.40983997 C 0.65703983,0.40416293 0.65688358,0.39801713 0.65688358,0.38523944 L 0.65688358,0.33150714 L 0.65735233,0.33150714 L 0.691241,0.42213156 L 0.70070274,0.42213156 L 0.73363656,0.33150714 L 0.73410531,0.33150714 L 0.73410531,0.40966636 C 0.73410531,0.41772187 0.73283796,0.41850311 0.72165747,0.41897186 L 0.72165747,0.4249614 L 0.77051132,0.4249614 z " />
    </g>
  </g>
</svg>
